<!DOCTYPE svg PUBLIC "-//W3C//DTD SVG 20010904//EN" "http://www.w3.org/TR/2001/REC-SVG-20010904/DTD/svg10.dtd">
<svg version="1.0" xmlns="http://www.w3.org/2000/svg" width="434px" height="434px" viewBox="0 0 4340 4340" preserveAspectRatio="xMidYMid meet">
<g id="layer1" fill="#a3a3a3" stroke="none">
 <path d="M2242 3767 c21 -16 27 -39 16 -60 -8 -15 -5 -17 16 -13 14 3 30 7 35 11 5 3 13 0 18 -8 8 -12 57 -47 67 -47 3 0 3 8 -1 18 -5 13 -1 11 14 -5 11 -13 23 -19 27 -15 5 4 7 -2 6 -13 -4 -38 0 -45 29 -45 16 0 31 -5 33 -11 2 -5 10 -11 18 -13 31 -6 50 -19 50 -32 0 -8 -6 -14 -12 -14 -7 0 2 -13 20 -30 18 -16 37 -30 41 -30 13 0 42 -36 34 -43 -3 -4 2 -7 13 -8 10 0 30 -14 43 -31 20 -24 22 -32 10 -39 -12 -8 -12 -10 1 -19 12 -8 11 -10 -8 -10 -20 0 -21 -2 -11 -21 l11 -22 22 26 c17 20 28 24 51 19 32 -5 65 -36 65 -59 0 -7 5 -13 11 -13 6 0 8 -7 5 -15 -5 -13 1 -15 32 -13 34 3 37 1 34 -21 -2 -24 -2 -24 18 -6 14 13 20 14 20 5 0 -7 3 -11 6 -7 4 3 -8 24 -25 46 -17 22 -36 53 -42 69 -6 17 -24 37 -45 48 -34 18 -36 18 -48 2 -18 -25 -49 -24 -41 1 3 11 1 22 -5 26 -16 10 -2 25 23 25 20 0 19 2 -9 28 -17 15 -36 37 -42 47 -9 17 -14 18 -31 8 -21 -13 -51 -8 -51 8 0 9 14 13 40 10 13 -2 13 -1 0 8 -8 6 -23 8 -32 5 -12 -3 -18 0 -18 10 0 9 -7 16 -15 16 -8 0 -15 5 -15 10 0 6 -7 10 -15 10 -27 0 -63 22 -68 42 -5 17 -2 19 19 14 23 -6 24 -5 14 14 -6 11 -14 20 -19 20 -4 0 -13 10 -19 23 -6 12 -11 16 -11 10 -1 -7 -8 -13 -17 -13 -14 0 -14 2 -3 16 11 14 10 15 -7 13 -11 -2 -31 6 -44 19 -13 12 -30 20 -38 17 -7 -2 -11 -1 -8 4 3 5 -9 11 -26 15 -21 4 -34 2 -39 -6 -6 -10 -11 -9 -21 3 -7 9 -30 19 -52 22 -31 5 -36 4 -24 -6z m284 -134 c-3 -8 -6 -19 -6 -24 0 -12 -67 -12 -74 0 -3 5 1 11 9 15 8 3 15 11 15 19 0 9 9 12 31 9 21 -3 29 -9 25 -19z"/>
 <path d="M2000 3745 c6 -8 9 -23 5 -35 -4 -14 -2 -20 9 -20 9 0 22 -15 30 -34 7 -18 31 -46 53 -61 48 -35 81 -95 52 -95 -12 0 -69 57 -69 69 0 4 -23 30 -51 57 -29 27 -67 65 -87 84 l-35 35 32 -42 c19 -25 29 -47 25 -57 -3 -9 -2 -16 4 -16 6 0 12 6 15 13 3 7 19 -2 45 -27 38 -37 47 -64 17 -52 -10 4 -11 -2 -5 -24 5 -16 11 -34 15 -40 11 -18 33 -11 38 13 3 21 4 21 12 3 6 -14 2 -24 -15 -38 -19 -15 -22 -23 -13 -36 12 -21 74 -28 103 -12 19 10 29 4 86 -52 98 -94 132 -149 74 -118 -12 6 -23 10 -25 8 -2 -2 -6 -24 -10 -49 -6 -42 -4 -49 24 -81 17 -20 31 -43 31 -51 0 -9 4 -18 9 -21 20 -13 -4 52 -31 80 -25 27 -28 36 -22 72 l6 40 40 -20 c49 -26 60 -16 23 22 -16 16 -26 32 -23 35 8 9 66 -43 73 -66 5 -16 10 -18 21 -8 11 9 21 9 44 -1 16 -7 27 -16 24 -21 -3 -5 1 -9 8 -9 12 0 48 -34 48 -45 0 -3 -7 -5 -15 -5 -20 0 -19 -31 1 -56 14 -18 15 -18 4 4 -10 20 -7 28 17 57 26 31 63 47 63 26 0 -5 -11 -22 -23 -38 -30 -35 -39 -70 -21 -77 8 -3 11 0 8 9 -7 17 23 74 42 82 8 3 13 12 10 20 -4 9 5 16 27 20 17 4 35 6 38 5 9 -2 21 47 14 58 -8 14 -65 -9 -114 -47 -65 -49 -83 -41 -36 15 20 24 22 32 12 46 -12 16 -14 16 -31 -3 -19 -21 -73 -30 -61 -10 4 5 0 18 -9 28 -9 10 -14 25 -11 34 4 10 0 17 -13 21 -10 4 -28 22 -38 41 -10 19 -22 35 -25 35 -4 0 -15 3 -23 6 -13 5 -15 2 -10 -12 6 -16 3 -15 -18 4 -14 13 -34 25 -44 27 -11 2 -21 4 -24 5 -3 0 4 7 14 15 17 13 17 15 3 20 -8 4 -25 2 -36 -4 -18 -10 -21 -8 -27 14 -4 15 -13 25 -24 25 -25 0 -35 19 -16 26 22 9 8 26 -15 19 -23 -8 -27 20 -4 29 8 3 12 12 9 21 -8 19 -24 20 -24 0 0 -8 -7 -15 -15 -15 -9 0 -15 9 -15 21 0 16 -5 20 -19 16 -21 -5 -31 10 -31 44 0 12 -7 19 -19 19 -13 0 -20 10 -25 33 -5 25 -9 29 -16 17 -9 -13 -12 -13 -21 3 -5 9 -15 17 -21 17 -7 0 -6 -5 2 -15z m247 -313 c4 -17 11 -22 24 -19 11 3 19 1 19 -3 0 -5 11 -22 25 -38 45 -53 -9 -27 -59 29 -25 28 -53 49 -64 49 -21 0 -36 13 -27 22 3 3 21 0 41 -6 23 -7 37 -19 41 -34z m183 -71 c0 -10 -6 -24 -14 -30 -11 -9 -15 -6 -18 19 -4 24 -1 30 14 30 11 0 18 -7 18 -19z"/>
 <path d="M1608 3619 c-10 -5 -18 -19 -18 -31 0 -14 -4 -18 -16 -14 -15 6 -15 4 0 -18 9 -14 16 -32 16 -40 0 -8 5 -18 11 -22 9 -5 10 9 5 53 -6 56 -5 60 16 71 13 6 19 11 13 11 -5 0 -18 -4 -27 -10z"/>
 <path d="M1534 3521 c-1 -36 1 -48 3 -26 2 22 9 45 14 50 7 7 8 0 3 -19 -5 -21 -4 -27 5 -22 16 10 14 34 -7 60 -17 22 -17 21 -18 -43z"/>
 <path d="M1403 3537 c-17 -9 -19 -16 -12 -29 8 -14 6 -18 -6 -18 -18 0 -21 -40 -2 -40 6 0 4 -5 -6 -11 -12 -7 -15 -14 -8 -22 6 -8 6 -31 0 -62 -4 -27 -8 -57 -7 -65 3 -34 -3 -48 -22 -53 -10 -3 -21 0 -23 6 -7 21 -29 -6 -24 -29 5 -26 -3 -30 -21 -12 -10 10 -20 8 -47 -7 -24 -12 -32 -22 -25 -29 17 -17 11 -36 -12 -36 -32 0 -10 -18 27 -22 26 -3 30 -7 28 -30 -1 -16 2 -28 8 -28 5 0 9 4 9 8 0 5 9 19 20 32 11 13 20 19 20 14 0 -5 6 2 13 15 18 37 37 38 37 2 0 -30 -6 -35 -41 -32 -18 2 -44 -85 -33 -112 5 -14 0 -17 -29 -17 -20 0 -40 7 -48 16 -13 15 -11 17 19 12 26 -4 32 -1 32 13 0 11 -6 16 -17 14 -10 -2 -29 -4 -42 -4 -16 -1 -21 -6 -18 -15 4 -9 -3 -16 -16 -20 -17 -5 -8 -11 43 -27 36 -11 88 -31 117 -44 48 -22 52 -27 55 -62 4 -38 4 -38 12 -10 7 22 4 35 -12 57 -18 24 -19 29 -6 34 10 4 13 13 9 25 -4 14 0 21 17 26 13 4 32 17 42 28 20 20 20 20 -15 14 -20 -4 -29 -4 -20 2 9 6 10 10 2 16 -7 3 -9 15 -6 25 4 12 0 22 -11 28 -18 10 -13 42 12 67 12 12 12 15 2 15 -15 0 -63 48 -56 55 3 3 18 -1 34 -10 28 -14 29 -14 32 8 2 12 9 28 14 34 7 9 5 24 -7 49 -20 42 -16 115 8 142 10 11 15 31 13 55 -4 46 -6 48 -33 34z"/>
 <path d="M1655 3488 c4 -24 14 -53 23 -66 8 -12 12 -25 9 -29 -10 -9 -37 18 -37 37 0 9 -9 25 -19 34 -18 16 -20 16 -45 -7 -14 -13 -26 -27 -26 -31 0 -4 13 -20 29 -35 16 -16 39 -47 50 -69 23 -45 45 -55 79 -34 25 16 28 34 8 51 -10 8 -13 23 -9 46 4 24 -1 41 -17 63 -13 17 -20 37 -17 45 6 15 -10 37 -26 37 -5 0 -6 -19 -2 -42z m-15 -65 c0 -11 -4 -11 -20 -3 -11 6 -17 16 -13 25 4 12 9 13 19 4 8 -6 14 -18 14 -26z m38 -66 c12 -13 19 -27 15 -31 -4 -4 0 -4 10 0 10 3 17 1 17 -5 0 -6 -4 -11 -9 -11 -5 0 -16 -3 -25 -6 -10 -4 -22 5 -36 28 -11 18 -20 36 -20 41 0 15 27 6 48 -16z"/>
 <path d="M2910 3469 c3 -3 41 -38 85 -79 l80 -74 -65 67 c-36 38 -74 73 -85 79 -11 6 -18 9 -15 7z"/>
 <path d="M1523 3290 c0 -41 2 -58 4 -37 2 20 2 54 0 75 -2 20 -4 3 -4 -38z"/>
 <path d="M2096 3311 c-3 -4 1 -17 9 -27 13 -18 14 -18 8 4 l-6 23 38 -18 c42 -20 81 -85 66 -112 -8 -13 -12 -11 -26 14 -10 17 -29 39 -43 50 -15 10 -3 -9 26 -44 41 -49 51 -68 46 -84 -4 -12 -3 -19 1 -15 5 4 15 2 23 -5 13 -9 14 -9 8 0 -4 7 -9 32 -12 55 -10 87 -35 132 -87 156 -33 14 -44 15 -51 3z"/>
 <path d="M2633 3289 c-15 -15 -5 -39 16 -39 26 0 31 10 18 31 -14 22 -19 23 -34 8z"/>
 <path d="M3291 3282 c-2 -46 31 -179 61 -237 16 -33 46 -80 67 -105 49 -61 190 -200 202 -200 6 0 -31 39 -81 86 -147 141 -207 248 -238 424 -5 30 -10 45 -11 32z"/>
 <path d="M1028 3255 c-10 -13 -18 -29 -18 -34 0 -6 -4 -11 -10 -11 -26 0 -18 -116 12 -174 9 -17 7 -18 -21 -13 -24 5 -29 3 -24 -8 3 -9 -1 -15 -9 -15 -8 0 -30 -18 -48 -40 -36 -43 -61 -53 -53 -20 10 37 -26 22 -47 -20 -19 -38 -19 -41 -3 -47 9 -4 19 -1 21 5 2 7 10 12 18 12 16 0 17 -5 5 -29 -9 -15 -6 -17 20 -13 34 5 47 20 25 28 -26 10 -18 38 19 74 38 37 43 29 21 -35 -13 -35 -13 -43 0 -62 18 -29 18 -63 -1 -63 -10 0 -13 -7 -9 -27 3 -16 1 -39 -5 -53 -5 -14 -10 -19 -10 -12 -1 6 -1 15 -2 20 -1 17 -44 52 -73 58 -17 3 -37 11 -43 16 -10 8 -13 5 -13 -12 0 -13 7 -28 17 -35 20 -15 11 -45 -15 -45 -10 0 -27 6 -38 14 -18 14 -20 12 -35 -37 -9 -29 -16 -53 -14 -55 1 -1 12 -4 24 -7 11 -2 26 -7 31 -10 6 -3 14 4 19 17 9 22 10 22 25 -14 9 -21 16 -45 17 -55 0 -12 2 -13 6 -5 9 22 -26 99 -53 116 -29 20 -34 42 -5 26 30 -15 48 -12 54 10 6 23 37 17 37 -6 0 -17 12 -18 28 -2 9 9 13 7 18 -5 3 -9 12 -17 18 -17 13 0 36 41 36 64 0 8 9 16 20 19 23 6 27 27 5 27 -13 0 -15 7 -10 34 5 27 3 36 -11 44 -16 9 -17 14 -6 34 6 12 13 34 14 48 2 14 11 36 21 50 14 20 20 23 35 14 10 -7 37 -15 60 -19 39 -6 42 -5 42 15 0 18 -3 20 -14 11 -16 -13 -56 1 -56 19 0 6 -7 10 -16 10 -8 0 -13 4 -9 10 3 5 12 7 19 4 7 -3 16 2 19 10 4 9 1 16 -6 16 -18 0 -16 108 3 120 31 19 43 -23 13 -46 -17 -13 -17 -14 5 -20 12 -3 22 -13 22 -20 0 -8 9 -23 21 -35 l21 -21 -7 41 c-4 27 -3 41 4 41 6 0 11 -6 11 -12 0 -7 7 0 15 16 14 26 14 31 0 46 -8 9 -12 20 -8 23 3 4 -1 7 -10 7 -10 0 -14 -5 -11 -15 10 -26 -12 -16 -25 11 -9 20 -15 23 -25 15 -15 -13 -26 -5 -26 20 0 28 -13 29 -32 4z m119 -91 c2 -6 -6 -10 -19 -9 -12 1 -24 7 -26 14 -3 8 4 12 19 9 12 -1 24 -8 26 -14z"/>
 <path d="M1808 3256 c-19 -19 -74 -30 -83 -17 -19 32 -70 -11 -78 -67 -4 -20 -3 -53 2 -73 5 -21 4 -43 -1 -53 -7 -13 -4 -30 14 -62 12 -24 26 -44 30 -44 4 0 15 11 24 25 21 32 32 32 37 -2 l4 -28 2 28 c0 17 -5 30 -14 34 -14 5 -14 8 1 24 16 18 16 20 0 38 -10 10 -13 22 -8 25 5 3 11 27 14 53 3 33 13 57 30 76 46 49 65 27 29 -35 -18 -30 -44 -118 -37 -125 2 -2 16 3 31 11 27 14 55 12 55 -5 0 -5 4 -9 10 -9 5 0 7 7 4 15 -4 8 -13 15 -21 15 -9 0 -13 6 -10 15 9 23 -11 28 -23 5 -6 -11 -14 -20 -19 -20 -10 0 -2 48 10 56 5 3 9 16 9 29 0 13 4 26 9 29 5 3 11 22 13 41 4 38 -9 46 -34 21z m-97 -46 c0 8 5 0 10 -18 7 -24 7 -38 -2 -48 -6 -8 -9 -28 -6 -47 3 -17 3 -26 0 -19 -2 6 -8 12 -13 12 -16 0 -16 -35 -2 -67 8 -17 12 -39 8 -49 -6 -16 -8 -16 -23 -1 -11 11 -17 38 -19 89 -4 89 0 104 29 112 17 4 19 8 9 18 -6 6 -12 17 -12 23 0 5 5 3 10 -5 9 -13 10 -13 11 0z"/>
 <path d="M2778 3209 c-10 -5 -18 -18 -18 -28 0 -11 -8 -22 -17 -25 -12 -5 -14 -9 -5 -18 13 -13 16 -51 5 -62 -8 -8 -9 -13 -12 -41 -1 -12 -11 -14 -46 -11 -38 3 -42 2 -30 -10 7 -8 18 -14 24 -14 6 0 11 -8 11 -17 1 -14 6 -11 25 12 14 17 25 35 25 42 0 6 7 18 15 27 9 8 16 34 18 58 1 24 8 49 15 56 6 7 12 20 12 28 0 16 0 16 -22 3z"/>
 <path d="M3026 3119 c81 -85 114 -123 114 -131 0 -3 9 -10 20 -13 20 -6 27 -31 11 -37 -5 -1 2 -16 16 -33 16 -20 21 -22 14 -8 -6 12 -8 29 -5 37 4 11 -9 31 -37 59 -24 23 -67 67 -95 97 -28 30 -59 62 -70 69 -10 8 4 -10 32 -40z"/>
 <path d="M927 3117 c-12 -19 -12 -24 -1 -35 11 -10 14 -10 15 0 0 7 2 23 3 36 3 27 2 27 -17 -1z"/>
 <path d="M2157 3104 c-4 -4 -7 -17 -6 -28 0 -20 1 -20 8 -2 5 14 10 16 15 8 4 -7 15 -12 24 -11 14 0 14 2 2 6 -8 4 -20 13 -25 20 -6 8 -14 11 -18 7z"/>
 <path d="M2054 3085 c-10 -26 13 -42 32 -23 15 15 15 17 -5 27 -17 10 -22 9 -27 -4z"/>
 <path d="M900 3056 c0 -14 4 -27 9 -30 13 -8 42 4 35 15 -3 5 -10 7 -15 4 -5 -4 -9 3 -9 14 0 12 -4 21 -10 21 -5 0 -10 -11 -10 -24z"/>
 <path d="M2260 3036 c0 -25 12 -60 36 -102 20 -35 38 -64 41 -64 3 0 -10 28 -29 63 -19 34 -35 78 -36 96 -3 48 -12 53 -12 7z"/>
 <path d="M2090 3021 c0 -6 -16 -7 -35 -4 -20 3 -35 2 -34 -3 3 -19 -2 -28 -9 -17 -6 10 -12 10 -28 -2 -13 -11 -14 -13 -3 -9 10 3 19 -1 22 -10 4 -10 1 -16 -9 -16 -26 0 -78 -41 -63 -50 7 -5 9 -15 4 -26 -7 -18 -8 -18 -15 1 -6 14 -9 3 -9 -37 -1 -58 5 -68 26 -47 7 7 13 7 17 1 3 -6 2 -13 -4 -17 -5 -3 -10 -14 -10 -23 1 -16 1 -16 10 0 6 10 18 14 32 11 22 -4 22 -4 4 11 -23 19 -15 62 14 71 11 3 20 12 21 18 3 44 8 60 21 73 13 13 18 12 46 -14 18 -17 32 -27 33 -24 0 4 9 -11 20 -33 14 -30 19 -34 19 -18 0 12 8 29 18 39 16 17 16 17 -7 11 -17 -4 -24 -1 -28 12 -3 10 -17 25 -31 32 -54 27 -86 68 -42 54 12 -4 26 0 36 9 14 15 14 16 0 16 -9 0 -16 -4 -16 -9z"/>
 <path d="M3215 2978 c10 -34 13 -86 4 -100 -5 -7 4 -25 22 -45 22 -26 28 -40 23 -59 -8 -31 12 -57 39 -48 11 4 23 1 28 -7 4 -7 11 -11 14 -8 9 9 -17 59 -27 53 -4 -3 -6 -9 -3 -13 2 -5 -5 -8 -17 -7 -28 1 -37 26 -9 26 31 0 34 17 10 60 -18 31 -20 43 -11 52 9 9 12 8 12 -5 0 -9 4 -17 9 -17 4 0 20 -11 35 -25 15 -14 31 -25 37 -25 5 0 9 -6 9 -13 0 -7 9 -19 20 -27 11 -8 20 -24 20 -36 0 -13 8 -24 20 -27 11 -3 24 -17 30 -31 11 -29 25 -34 34 -11 3 8 10 15 16 15 16 0 12 -30 -5 -36 -26 -10 -16 -22 18 -20 27 1 33 -3 35 -23 2 -13 -2 -27 -8 -31 -8 -5 -1 -10 19 -15 17 -3 31 -11 31 -16 0 -6 5 -7 10 -4 13 8 42 -14 35 -25 -3 -5 9 -15 26 -24 30 -15 31 -15 18 3 -55 75 -101 131 -130 158 -31 29 -45 44 -85 98 -15 20 -15 20 -9 -2 7 -27 -7 -30 -26 -7 -9 11 -10 17 -1 23 17 10 2 26 -53 54 -47 24 -58 37 -78 99 -4 10 -12 15 -20 12 -8 -3 -27 12 -47 36 -36 44 -56 52 -45 18z m50 -99 c0 -7 -8 -15 -17 -17 -18 -3 -25 18 -11 32 10 10 28 1 28 -15z"/>
 <path d="M1543 2920 c0 -36 2 -50 4 -32 2 17 2 47 0 65 -2 17 -4 3 -4 -33z"/>
 <path d="M2640 2978 c0 -3 19 -21 41 -42 23 -20 39 -29 35 -21 -4 11 -2 15 6 12 7 -2 13 -11 13 -20 0 -16 95 -120 103 -112 2 2 -11 18 -30 35 -21 21 -26 30 -14 26 10 -4 24 -2 31 4 13 11 55 -27 59 -54 1 -9 27 -42 58 -74 96 -100 160 -193 131 -192 -13 1 -43 26 -43 38 0 5 -7 13 -16 16 -24 9 -29 7 -16 -6 17 -17 15 -45 -5 -78 -14 -25 -15 -34 -4 -70 16 -54 23 -48 9 6 -10 37 -9 45 9 67 19 25 21 25 35 9 8 -9 32 -57 53 -107 20 -49 39 -92 41 -94 2 -3 29 -6 59 -8 51 -3 55 -2 55 19 0 27 11 16 27 -25 10 -28 12 -29 12 -8 1 20 3 21 16 11 8 -7 15 -19 15 -28 0 -8 8 -24 17 -35 17 -18 17 -19 0 -28 -9 -6 -17 -19 -17 -30 0 -25 -27 -79 -40 -79 -5 0 -10 12 -12 27 -3 24 -8 27 -42 30 -21 1 -53 -4 -70 -12 -22 -11 -24 -13 -6 -8 14 4 45 7 68 8 l44 2 -4 -38 c-2 -22 0 -39 4 -39 4 0 19 15 35 34 40 51 46 34 13 -36 -20 -41 -26 -66 -20 -72 15 -15 12 -69 -5 -93 -14 -19 -12 -22 18 -37 19 -9 25 -16 15 -16 -11 0 -18 -8 -18 -19 0 -11 -4 -23 -10 -26 -5 -3 -10 -22 -10 -41 0 -22 -6 -37 -15 -40 -8 -4 -15 -10 -15 -15 0 -5 7 -9 15 -9 8 0 15 -7 15 -15 0 -9 8 -25 19 -36 15 -16 23 -18 45 -9 45 17 63 13 69 -17 4 -20 -1 -32 -16 -45 -11 -10 -24 -18 -29 -18 -16 0 -7 -28 15 -43 18 -13 19 -16 5 -16 -10 -1 -18 -5 -18 -11 0 -5 -7 -10 -15 -10 -8 0 -15 5 -15 10 0 6 6 10 13 10 8 0 7 4 -3 10 -23 15 -26 13 -27 -25 -1 -30 2 -34 20 -31 12 2 16 1 9 -1 -22 -8 -6 -28 19 -25 19 2 21 0 9 -8 -10 -6 -11 -10 -2 -10 13 0 17 -32 5 -44 -5 -4 -8 -11 -8 -14 0 -13 -30 -47 -53 -60 -25 -14 -42 -9 -42 14 0 8 -8 14 -19 14 -10 0 -39 11 -64 25 -26 13 -53 22 -60 19 -8 -3 -20 2 -27 11 -7 8 -20 15 -30 15 -10 0 -21 7 -24 16 -10 26 -7 36 10 30 8 -3 12 -2 9 4 -3 6 -16 10 -27 10 -21 0 -21 1 -3 20 12 13 26 18 39 15 19 -5 19 -5 4 5 -26 16 -22 31 5 21 12 -5 21 -14 20 -20 -2 -6 2 -11 7 -11 15 0 12 26 -4 39 -18 15 -133 24 -141 11 -3 -6 3 -10 14 -10 12 0 21 -5 21 -11 0 -6 8 -8 19 -4 27 8 17 -27 -19 -65 -39 -42 -43 -66 -14 -85 13 -8 24 -22 24 -30 0 -8 4 -15 9 -15 5 0 11 -9 14 -20 3 -11 10 -20 16 -20 6 0 11 9 11 20 0 26 16 26 23 0 3 -11 11 -20 19 -19 10 0 10 2 1 6 -7 2 -13 11 -13 18 0 8 -8 19 -17 25 -15 9 -12 10 12 5 34 -8 47 -22 41 -47 -2 -11 2 -18 11 -18 14 0 13 11 -5 59 -4 10 -1 13 11 8 11 -4 14 -2 10 9 -9 24 10 15 56 -26 46 -42 68 -48 104 -28 35 18 85 75 83 95 -1 13 6 18 22 17 23 -1 23 -1 -3 21 -24 18 -25 22 -12 34 20 16 57 5 57 -17 1 -16 2 -16 14 1 7 9 22 17 33 17 13 0 26 14 40 43 25 52 18 71 -32 87 -19 6 -33 16 -30 21 4 5 -1 6 -9 3 -23 -9 -20 -14 14 -25 31 -11 41 -29 15 -29 -8 0 -15 -5 -15 -11 0 -18 -48 -81 -54 -71 -3 6 0 13 6 15 7 3 1 6 -14 6 -21 1 -28 6 -28 21 0 13 -7 20 -20 20 -27 0 -25 16 3 31 12 7 25 17 29 23 10 15 -1 58 -18 72 -16 13 -8 24 18 24 10 0 18 5 18 10 0 6 -13 10 -29 10 -34 0 -50 18 -30 32 9 6 -4 8 -39 3 l-53 -6 5 33 c6 49 15 67 39 70 34 5 33 34 -2 46 -29 10 -41 35 -23 46 4 2 7 23 7 45 0 23 3 41 7 41 4 0 19 12 35 26 18 16 34 23 48 20 11 -3 28 -6 37 -6 11 0 24 -14 31 -32 12 -28 12 -38 -1 -64 -21 -46 -6 -88 35 -92 30 -3 52 -29 36 -41 -5 -3 -8 -21 -8 -39 0 -32 1 -34 33 -29 26 5 32 3 32 -13 0 -10 -7 -20 -15 -24 -8 -3 -15 -10 -15 -16 0 -7 6 -7 21 0 11 7 27 9 34 6 7 -2 18 1 23 7 12 16 42 106 42 127 0 20 -52 80 -70 80 -9 0 -10 3 -1 14 14 16 -11 42 -30 30 -7 -4 -10 -2 -7 7 3 8 -1 22 -10 31 -14 16 -12 21 22 52 20 19 36 39 36 45 0 5 8 15 18 20 15 9 15 10 1 11 -9 0 -28 -11 -43 -25 -14 -13 -26 -21 -26 -18 0 3 -6 0 -13 -6 -8 -6 -17 -8 -21 -4 -4 4 -4 0 0 -10 4 -12 1 -17 -10 -17 -16 0 -50 53 -40 63 4 3 -4 20 -16 37 -19 26 -20 34 -9 41 26 16 39 9 39 -20 0 -17 4 -32 9 -35 9 -6 -1 56 -14 87 -8 20 -51 23 -58 5 -3 -7 -6 4 -6 24 -1 46 -17 58 -23 18 -3 -16 0 -31 6 -33 6 -3 7 -8 3 -13 -5 -5 -15 -1 -23 10 -10 15 -16 16 -27 7 -23 -19 -43 13 -28 45 10 23 9 25 -7 20 -22 -7 -60 28 -43 39 18 10 13 27 -7 23 -23 -4 -72 28 -72 47 0 8 -10 20 -22 26 -13 7 -37 28 -55 48 -18 20 -32 30 -33 24 0 -7 4 -13 10 -13 11 0 34 -39 27 -47 -3 -2 -18 12 -33 33 -18 22 -24 39 -18 41 14 5 -19 79 -38 86 -10 4 -10 8 -1 14 14 10 -18 53 -40 53 -20 0 -36 21 -43 58 -4 18 -13 32 -20 32 -8 0 -14 6 -14 14 0 7 -12 21 -26 31 -47 31 -75 59 -70 72 8 21 -13 15 -26 -7 -16 -26 -28 -26 -28 0 0 11 -8 24 -17 27 -9 4 -25 15 -35 25 -10 10 -24 18 -30 18 -10 0 -9 -3 1 -9 8 -5 9 -11 3 -15 -6 -3 -24 6 -41 20 -17 14 -31 24 -31 22z m720 -866 c0 -10 -11 -29 -25 -42 -29 -28 -31 -23 -8 25 18 38 33 46 33 17z m207 -138 c4 -10 -1 -22 -10 -29 -10 -7 -17 -17 -17 -24 0 -11 -32 -16 -42 -5 -10 9 4 44 17 44 7 0 15 7 19 15 7 20 25 19 33 -1z m51 -80 c-13 -13 -21 -14 -45 -5 l-28 11 33 -3 c17 -2 32 0 32 5 0 4 5 8 12 8 8 0 7 -6 -4 -16z m9 -70 c12 -11 13 -18 4 -27 -8 -8 -11 -8 -11 2 0 11 -3 11 -15 1 -12 -10 -15 -9 -15 7 0 34 14 41 37 17z m-243 -120 c23 -9 1 -34 -30 -34 -13 0 -24 -4 -24 -10 0 -5 -5 -10 -11 -10 -8 0 -9 4 0 13 6 8 8 17 4 21 -8 8 15 26 34 26 6 0 19 -3 27 -6z m-274 -334 c10 -18 8 -20 -19 -20 -24 0 -28 3 -24 20 3 11 11 20 19 20 7 0 18 -9 24 -20z"/>
 <path d="M1772 2847 c-8 -25 -12 -54 -9 -64 3 -12 5 -8 6 10 0 16 6 37 12 48 5 11 9 27 7 36 -2 8 -9 -5 -16 -30z"/>
 <path d="M2196 2881 c-8 -12 14 -72 23 -66 10 5 2 63 -9 70 -5 3 -11 1 -14 -4z"/>
 <path d="M1550 2833 c1 -5 15 -17 33 -28 18 -11 32 -26 32 -32 0 -6 3 -15 8 -19 4 -4 7 2 7 13 0 11 -8 26 -17 34 -28 22 -63 40 -63 32z"/>
 <path d="M2005 2829 c-7 -10 21 -38 38 -39 10 0 9 8 -3 31 -12 21 -25 25 -35 8z"/>
 <path d="M2163 2735 c0 -33 2 -45 4 -27 2 18 2 45 0 60 -2 15 -4 0 -4 -33z"/>
 <path d="M1993 2758 c-8 -10 -20 -15 -24 -12 -5 3 -6 -2 -3 -11 5 -12 13 -15 28 -10 11 4 36 9 54 12 43 7 41 30 -3 35 -25 3 -40 -1 -52 -14z"/>
 <path d="M1460 2763 c8 -4 32 -17 53 -30 27 -17 37 -19 37 -9 0 12 -73 47 -95 45 -6 0 -3 -3 5 -6z"/>
 <path d="M1741 2736 c-6 -16 -9 -31 -6 -34 3 -3 5 0 5 6 0 6 7 9 15 6 17 -7 18 1 5 31 -7 18 -9 18 -19 -9z"/>
 <path d="M2379 2733 c8 -15 8 -30 1 -48 -13 -34 -13 -32 9 -38 25 -6 17 -44 -10 -52 -20 -7 -26 -25 -9 -25 6 0 10 5 10 11 0 6 8 8 18 5 11 -4 19 -1 20 6 1 7 4 25 8 41 4 17 2 27 -5 27 -6 0 -11 13 -11 28 0 17 -9 37 -21 48 -22 19 -22 19 -10 -3z"/>
 <path d="M2065 2710 c-3 -5 -15 -10 -26 -10 -11 0 -27 -7 -35 -15 -13 -13 -11 -14 18 -8 18 3 38 13 44 21 7 9 18 13 28 9 10 -4 15 -3 11 3 -8 13 -32 13 -40 0z"/>
 <path d="M1738 2682 c-19 -4 -24 -27 -8 -37 6 -4 4 -15 -6 -30 -11 -16 -13 -34 -8 -59 4 -23 2 -42 -6 -51 -7 -8 -10 -15 -7 -15 3 0 12 -3 21 -6 10 -4 16 -1 16 9 0 20 16 30 32 21 7 -5 5 -11 -8 -21 -17 -12 -17 -16 -4 -26 8 -7 16 -24 18 -39 3 -23 -1 -28 -20 -29 -13 -1 -27 -1 -32 0 -5 1 -4 -5 4 -13 7 -9 8 -16 2 -16 -5 0 -12 -7 -16 -15 -3 -9 0 -15 10 -15 9 0 18 9 21 20 3 12 14 20 25 20 14 0 18 -5 14 -15 -3 -9 0 -15 9 -15 8 0 15 -5 15 -12 0 -6 3 -9 6 -6 3 4 -3 29 -13 57 -15 43 -16 53 -4 60 11 7 11 9 0 13 -22 7 8 81 47 119 19 18 34 42 33 53 0 20 -1 20 -9 -1 -10 -25 -55 -32 -63 -10 -3 7 -6 4 -6 -7 -1 -13 -6 -17 -21 -13 -11 3 -23 1 -26 -4 -3 -5 -9 -7 -14 -4 -5 3 -2 22 6 41 17 42 16 51 -8 46z"/>
 <path d="M2244 2662 c3 -5 -2 -25 -11 -43 -12 -24 -18 -29 -21 -18 -2 11 -16 19 -40 22 -46 5 -52 1 -23 -19 17 -12 21 -24 19 -52 -3 -32 -7 -38 -33 -43 -27 -6 -27 -7 -5 -8 43 -1 53 12 48 63 -4 37 -3 44 7 36 13 -10 26 -90 25 -145 0 -16 -8 -37 -17 -47 -15 -17 -15 -20 5 -46 41 -50 95 -136 113 -180 15 -35 16 -46 6 -63 -10 -17 -9 -22 6 -30 9 -6 17 -18 17 -29 0 -12 8 -20 22 -22 16 -2 24 -12 28 -32 3 -17 10 -28 15 -25 10 4 11 8 14 39 1 12 4 11 12 -3 8 -13 7 -22 -2 -33 -18 -22 5 -68 31 -61 22 6 33 -15 24 -48 -4 -17 0 -26 16 -35 18 -10 20 -14 9 -21 -12 -7 -12 -9 0 -9 12 0 12 -3 3 -12 -15 -15 -52 17 -52 46 0 15 -3 17 -12 8 -7 -7 -20 -12 -30 -12 -24 0 -23 -14 3 -31 22 -15 18 -43 -7 -53 -10 -4 -14 3 -14 24 0 23 -5 31 -25 36 -14 4 -29 4 -32 0 -4 -3 1 -6 9 -6 24 0 10 -50 -18 -62 -32 -15 -33 -42 -1 -33 12 4 26 11 31 16 6 5 14 9 18 9 15 0 8 -22 -13 -39 -18 -14 -20 -21 -10 -39 6 -11 11 -27 11 -36 0 -13 -4 -13 -30 1 -17 8 -28 20 -24 26 3 7 -1 4 -10 -7 -14 -18 -16 -17 -39 9 -25 29 -47 27 -47 -3 0 -21 -60 -24 -76 -4 -5 8 -19 12 -30 10 -13 -2 -19 2 -18 15 1 9 -2 17 -6 17 -12 0 -21 30 -27 90 -10 97 -9 103 13 115 12 6 29 16 37 23 10 9 17 10 22 2 7 -11 74 50 68 61 -1 4 8 9 21 11 20 4 25 0 30 -25 7 -37 -12 -64 -20 -29 -10 36 -27 26 -21 -13 9 -52 30 -90 50 -87 9 2 17 -2 17 -8 0 -6 -4 -9 -9 -5 -5 3 -13 0 -17 -6 -5 -9 0 -10 17 -6 13 4 30 7 38 7 11 0 11 3 1 15 -10 12 -10 18 -1 29 10 12 8 15 -11 18 -25 3 -32 33 -8 33 8 0 20 4 27 8 6 4 15 2 19 -4 4 -8 9 -7 15 2 12 19 11 37 -1 19 -9 -13 -13 -11 -30 10 -17 21 -20 22 -18 6 2 -10 -3 -21 -11 -24 -11 -4 -12 5 -7 42 6 38 5 46 -8 46 -9 0 -16 5 -16 10 0 19 -54 -2 -88 -34 -32 -30 -36 -31 -120 -31 -64 1 -96 6 -120 19 -38 20 -52 14 -34 -14 10 -17 10 -20 -7 -20 -30 0 -44 26 -38 70 3 21 1 40 -4 42 -8 3 -14 54 -23 201 -2 26 -6 50 -8 53 -8 8 0 -194 10 -261 6 -33 8 -63 5 -67 -2 -5 -6 -16 -8 -25 -2 -10 -8 -38 -14 -63 -6 -25 -13 -58 -16 -73 -5 -24 -9 -27 -28 -21 -34 11 -60 7 -74 -12 -7 -10 -20 -19 -29 -20 -19 -3 -29 -12 -22 -19 3 -3 25 -1 49 4 39 9 46 8 67 -12 15 -14 25 -18 30 -10 5 7 13 2 25 -13 17 -23 17 -24 -1 -24 -11 0 -22 -7 -26 -15 -3 -8 -12 -15 -21 -15 -8 0 -15 -5 -15 -10 0 -6 11 -8 25 -4 15 4 25 2 25 -5 0 -6 6 -10 12 -8 7 1 14 -8 16 -21 4 -23 48 -52 70 -45 6 3 12 -1 12 -8 0 -10 3 -10 12 -1 18 18 28 15 28 -9 0 -11 5 -17 10 -14 6 3 10 16 10 29 0 22 17 46 33 46 4 0 5 -9 2 -20 -7 -21 9 -28 20 -10 4 6 15 8 25 5 15 -5 18 -2 15 15 -4 19 -2 20 11 9 9 -7 13 -20 11 -29 -4 -14 3 -17 37 -16 23 1 47 6 54 10 8 5 12 -3 13 -26 1 -24 3 -27 6 -10 3 17 9 21 24 17 15 -5 19 -2 19 14 0 25 13 27 30 6 14 -17 46 -20 55 -5 4 6 16 8 27 4 11 -3 23 -2 27 2 12 17 70 33 74 20 3 -7 11 -4 23 8 19 18 18 18 -3 11 -17 -5 -23 -2 -23 9 0 21 18 30 35 16 12 -10 16 -8 24 12 5 13 16 29 24 36 11 9 12 22 7 52 -4 22 -6 41 -4 41 2 1 10 2 17 3 17 2 16 57 -2 79 -18 22 -6 35 19 19 28 -17 33 -15 26 14 -5 20 -3 27 14 31 24 6 27 33 4 33 -9 0 -18 9 -21 20 -9 33 -23 22 -16 -12 l6 -33 -24 18 c-13 10 -32 20 -42 24 -16 5 -47 61 -47 85 0 5 10 6 23 2 47 -15 51 -14 17 3 -83 42 -100 70 -62 100 15 13 15 13 -5 3 -17 -8 -23 -19 -23 -41 0 -24 -4 -30 -16 -25 -9 3 -24 6 -34 6 -11 0 -19 9 -22 25 -3 13 -1 23 5 22 5 -1 12 4 14 12 4 9 0 11 -16 6 -18 -5 -22 -1 -28 26 -3 19 -13 34 -24 36 -10 3 -21 13 -24 23 -3 10 -17 35 -31 56 -20 29 -23 39 -12 45 11 7 10 11 -2 19 -11 7 -8 9 14 7 16 -1 31 4 33 11 3 7 -4 12 -15 12 -25 0 -45 23 -32 36 6 6 5 22 -3 43 -11 29 -10 34 8 47 14 10 18 24 17 49 -2 23 2 34 9 33 21 -5 19 17 -2 30 -12 8 -18 9 -15 4z m186 -597 c7 -8 19 -15 26 -15 8 0 14 -9 14 -20 0 -13 -5 -18 -15 -14 -8 4 -15 12 -15 19 0 7 -9 15 -20 18 -11 3 -20 10 -20 16 0 16 15 14 30 -4z m117 -107 c30 -28 29 -38 -2 -38 -20 0 -25 -5 -25 -27 0 -41 -12 -19 -16 29 -4 64 5 72 43 36z m-562 -48 c10 -11 16 -23 12 -26 -10 -10 -41 5 -55 26 -10 17 -10 20 6 20 11 0 27 -9 37 -20z m-137 -83 c7 -8 6 -18 -3 -31 -17 -23 -35 -13 -35 20 0 26 21 32 38 11z m82 -80 c0 -11 9 -21 20 -24 11 -3 20 -9 20 -14 0 -13 -7 -11 -35 7 -18 12 -25 25 -25 48 0 24 3 27 10 16 5 -8 10 -23 10 -33z m489 -92 c18 -5 30 -25 17 -25 -2 0 -11 -3 -20 -6 -12 -4 -20 3 -30 27 -8 19 -12 38 -8 43 3 5 9 0 13 -11 4 -12 17 -24 28 -28z m-449 -28 c0 -8 -3 -17 -7 -20 -9 -9 -34 13 -27 24 8 14 34 11 34 -4z"/>
 <path d="M1190 2601 c16 -31 30 -35 51 -12 20 21 20 21 0 21 -14 0 -19 -5 -15 -15 4 -8 1 -15 -5 -15 -10 0 -15 14 -12 33 0 4 -6 7 -14 7 -12 0 -14 -4 -5 -19z"/>
 <path d="M1272 2594 c-19 -21 -9 -40 34 -60 35 -17 39 -17 66 -1 35 20 59 22 78 5 8 -7 6 -3 -3 8 -10 12 -31 24 -48 28 -37 7 -38 23 -1 29 15 2 -4 5 -43 5 -51 1 -74 -3 -83 -14z m82 -29 c3 -8 1 -17 -3 -20 -13 -8 -71 6 -71 17 0 6 7 7 15 4 9 -3 18 1 21 9 7 16 30 10 38 -10z"/>
 <path d="M2279 2581 l-24 -19 28 -13 c22 -10 30 -10 40 0 9 10 9 11 -4 6 -22 -8 -34 12 -19 30 17 21 7 19 -21 -4z"/>
 <path d="M660 2536 c-8 -22 -6 -32 8 -51 9 -14 20 -25 25 -25 4 0 7 -9 7 -20 0 -11 5 -29 12 -40 21 -34 -1 -35 -32 -2 -25 28 -50 41 -50 28 0 -3 21 -27 46 -53 54 -57 112 -134 138 -185 10 -20 38 -51 63 -69 71 -50 88 -98 88 -244 -1 -138 -13 -187 -82 -337 -32 -72 -42 -102 -35 -115 8 -14 11 -11 17 16 4 17 26 73 49 124 61 132 71 174 71 312 0 111 -2 124 -28 178 -16 31 -32 57 -36 57 -4 0 -28 19 -54 43 -44 39 -58 69 -39 81 18 11 73 -12 111 -46 28 -27 49 -38 71 -38 16 0 30 4 30 8 0 5 -12 7 -27 5 -19 -3 -34 2 -48 17 -11 11 -30 30 -43 42 -14 14 -18 24 -11 29 6 3 0 8 -15 11 -15 3 -24 1 -23 -6 3 -17 -76 -7 -90 12 -7 9 -13 25 -13 36 0 11 -6 27 -14 35 -8 9 -17 32 -21 51 -7 30 -6 33 7 22 8 -6 18 -9 21 -5 12 11 7 23 -9 23 -12 0 -14 7 -9 33 4 17 14 41 21 52 8 11 14 23 14 27 0 14 -80 9 -80 -4 -1 -8 -7 -5 -15 6 -14 18 -15 18 -25 -8z m77 -41 c-3 -34 -17 -62 -17 -32 0 10 -7 17 -15 17 -19 0 -19 5 1 35 21 32 33 24 31 -20z"/>
 <path d="M945 2517 c-9 -14 -25 -27 -35 -30 -11 -3 -20 -11 -20 -19 0 -9 2 -10 8 -1 4 6 20 15 35 18 15 4 27 14 27 21 0 23 26 27 53 9 31 -20 47 -62 48 -124 1 -54 15 -109 20 -76 1 11 2 25 2 32 0 6 6 9 14 6 11 -4 12 3 7 38 -3 24 -10 55 -16 69 -12 32 -58 69 -96 76 -25 5 -33 2 -47 -19z m137 -124 c-9 -25 -10 -21 -10 27 0 48 1 52 10 28 6 -19 6 -37 0 -55z"/>
 <path d="M1462 2515 c19 -20 -35 -61 -116 -89 -14 -5 -16 -9 -7 -20 18 -21 9 -95 -12 -102 -17 -5 -17 -7 -2 -31 14 -21 15 -27 4 -35 -11 -7 -9 -8 4 -4 33 11 67 -43 41 -65 -9 -8 -11 -16 -5 -22 12 -12 31 0 31 21 0 13 2 14 13 3 10 -11 10 -14 0 -18 -7 -3 -13 -11 -13 -18 0 -15 -35 -26 -47 -15 -4 5 -17 10 -28 13 -18 4 -18 5 3 6 13 1 22 7 22 17 0 11 -6 15 -20 11 -16 -4 -18 -2 -11 12 6 10 5 22 -3 33 -10 14 -12 9 -11 -32 1 -31 8 -56 18 -68 19 -21 22 -32 8 -32 -5 0 -11 10 -14 22 -5 16 -9 19 -19 11 -22 -17 -61 -23 -75 -11 -10 8 -13 7 -13 -3 -1 -10 -5 -8 -14 4 -11 15 -19 16 -34 8 -15 -8 -23 -6 -36 8 -9 10 -14 20 -11 23 3 2 -6 15 -19 27 -19 18 -24 20 -29 7 -4 -10 -1 -13 7 -10 7 3 16 -3 20 -12 8 -22 0 -30 -17 -16 -18 15 -18 4 -5 -123 5 -55 10 -134 10 -175 0 -41 3 -93 7 -115 8 -42 -4 -95 -21 -95 -5 0 -8 -6 -6 -12 3 -7 11 -13 19 -13 17 0 19 -19 3 -21 -19 -3 -55 -44 -48 -55 3 -6 19 -7 35 -4 35 8 32 32 38 -293 2 -79 1 -146 -2 -149 -10 -9 51 -54 68 -51 8 2 21 -8 28 -22 7 -14 18 -25 25 -25 7 0 16 -5 20 -11 4 -6 17 -13 29 -16 16 -4 20 -2 16 10 -5 12 0 14 30 8 29 -5 37 -4 37 7 0 15 -46 17 -69 3 -17 -11 -61 21 -61 44 0 15 -8 19 -37 22 -26 2 -37 7 -35 17 2 7 -6 23 -17 35 -17 18 -18 27 -10 70 6 33 6 53 -2 62 -6 7 -7 19 -3 26 13 21 16 81 3 73 -8 -5 -9 9 -6 51 9 105 26 151 40 112 2 -7 8 -10 12 -6 5 5 1 16 -8 25 -8 10 -20 34 -25 53 l-10 35 -1 -37 c-1 -20 -5 -39 -10 -42 -5 -3 -8 56 -7 134 1 128 -6 175 -17 118 -3 -13 -3 -1 -1 26 2 27 9 53 15 57 8 4 9 17 4 35 -5 16 -9 34 -10 39 0 6 -7 23 -13 39 -9 20 -10 32 -2 40 7 7 10 3 10 -11 0 -29 15 -37 30 -17 10 11 10 18 2 26 -7 7 -12 25 -12 41 0 24 2 27 14 18 8 -7 20 -11 28 -10 31 4 41 -1 29 -14 -6 -8 -8 -17 -4 -20 12 -13 18 -7 19 19 3 35 11 40 33 20 13 -12 21 -14 26 -6 5 8 12 7 23 -3 10 -8 24 -16 32 -19 9 -3 21 -18 29 -34 7 -16 17 -36 21 -45 5 -9 4 -22 -1 -30 -15 -24 -10 -39 16 -49 14 -5 25 -15 25 -22 0 -7 3 -23 6 -35 5 -18 2 -23 -12 -24 -11 0 -14 -3 -6 -6 6 -2 12 -20 12 -38 0 -20 6 -35 15 -39 22 -8 18 -26 -6 -26 -14 0 -19 5 -16 14 3 8 0 22 -8 32 -13 18 -14 18 -34 0 -12 -11 -21 -24 -21 -30 0 -13 -41 -41 -53 -38 -5 1 -11 -7 -14 -18 -3 -11 -13 -20 -22 -20 -13 0 -17 -10 -19 -45 -1 -25 2 -43 7 -40 5 3 11 -1 14 -7 3 -11 7 -10 19 0 13 10 20 9 39 -7 21 -17 22 -22 11 -45 -16 -35 -15 -39 3 -32 10 3 17 -3 21 -20 6 -22 11 -25 34 -20 24 4 30 1 38 -22 6 -15 14 -36 18 -47 4 -11 8 -37 9 -57 1 -32 -1 -36 -13 -25 -8 7 -18 11 -21 9 -3 -2 -8 5 -12 14 -5 15 -7 13 -11 -9 -3 -15 -1 -30 4 -33 5 -3 7 -13 4 -21 -3 -8 -1 -11 4 -8 6 3 10 0 10 -9 0 -8 6 -16 13 -19 9 -3 7 -10 -6 -25 -11 -11 -16 -26 -12 -32 4 -6 -3 -21 -14 -32 l-22 -20 25 -25 c27 -27 33 -43 16 -43 -5 0 -10 4 -10 9 0 5 -7 8 -16 7 -13 -2 -17 -15 -18 -58 -1 -50 0 -54 16 -45 12 8 14 15 7 23 -15 18 6 27 31 14 28 -15 25 -47 -7 -63 l-27 -14 25 -14 c13 -7 27 -12 32 -11 4 1 7 -3 7 -9 0 -8 5 -8 15 1 8 7 15 9 15 4 0 -14 24 15 28 33 2 10 7 41 12 68 7 46 6 52 -19 72 -15 13 -19 20 -9 17 9 -3 21 -3 27 0 16 10 0 45 -23 49 -17 3 -15 5 7 6 16 0 27 7 27 15 0 14 -34 30 -57 27 -14 -2 -16 9 -7 33 3 9 10 14 14 11 5 -3 11 8 15 25 4 16 11 30 16 30 5 0 9 18 9 40 0 22 4 40 10 40 5 0 7 7 4 15 -4 8 -10 12 -15 9 -5 -3 -9 4 -9 15 0 14 -5 19 -15 15 -10 -4 -15 0 -15 11 0 9 9 19 20 22 11 3 20 9 20 14 0 5 7 9 16 9 10 0 14 7 12 18 -2 9 -10 16 -16 15 -13 -3 -13 -2 -18 72 -4 44 -7 78 -12 123 -1 6 -8 12 -16 12 -8 0 -16 10 -20 23 -6 27 4 73 13 58 4 -5 12 -6 20 -2 9 6 10 14 3 27 -12 22 -13 144 -1 144 4 0 9 -5 11 -12 2 -6 10 -8 16 -4 9 5 8 15 -4 39 l-17 31 -17 -22 c-23 -28 -31 -18 -24 30 5 29 3 38 -7 38 -8 0 -20 12 -26 27 -15 31 -17 87 -4 79 5 -3 11 9 15 27 7 33 -11 57 -41 57 -21 0 -15 16 12 30 25 13 34 30 16 30 -5 0 -11 9 -14 20 -9 34 -34 24 -33 -12 1 -38 -12 -51 -27 -26 -8 12 -7 23 2 41 7 14 11 30 7 35 -3 6 2 13 12 16 14 5 17 14 14 40 -4 35 14 58 28 36 11 -18 42 -4 38 17 -3 10 1 30 9 45 10 21 10 28 0 34 -6 4 -9 4 -5 -1z m-90 -880 c-8 -28 -9 -28 -19 -10 -8 13 -8 25 -1 38 14 28 29 7 20 -28z m38 11 c0 -8 12 -24 26 -35 15 -12 24 -21 21 -21 -13 0 -57 24 -57 31 0 4 -3 14 -6 23 -3 9 -1 16 5 16 6 0 11 -6 11 -14z m-90 -36 c0 -6 -9 -20 -20 -32 -11 -12 -20 -18 -20 -12 0 5 -3 19 -6 32 -5 19 -2 22 20 22 14 0 26 -5 26 -10z m155 -246 c23 -15 35 -44 18 -44 -9 0 -53 45 -53 54 0 10 9 7 35 -10z m-30 -302 c-15 -15 -21 23 -11 66 l11 47 3 -54 c2 -29 0 -56 -3 -59z"/>
 <path d="M2503 2423 c-4 -9 -1 -19 5 -21 25 -8 10 -22 -23 -22 -28 0 -35 -4 -35 -20 0 -11 -7 -20 -15 -20 -8 0 -15 -6 -15 -14 0 -9 18 -15 51 -19 65 -8 129 -36 129 -57 0 -28 75 -90 109 -90 29 0 31 3 31 35 0 33 -1 34 -30 29 -26 -6 -30 -4 -30 15 0 13 6 21 16 21 9 0 27 9 41 20 31 24 10 27 -33 5 -31 -15 -88 -10 -62 6 10 7 11 12 0 26 -6 10 -17 29 -22 42 -9 21 -15 23 -51 17 -37 -6 -40 -5 -35 12 13 38 -17 71 -31 35z m82 -72 c6 -11 -63 -36 -72 -27 -4 3 1 6 9 6 9 0 18 7 22 15 6 17 32 20 41 6z"/>
 <path d="M844 2415 c-4 -8 -12 -15 -19 -15 -8 0 -13 -13 -13 -35 0 -23 5 -35 14 -35 8 0 11 -6 8 -15 -3 -8 1 -22 10 -30 15 -15 16 -14 16 9 0 17 5 26 16 26 11 0 15 -6 11 -20 -5 -19 -4 -19 19 2 17 17 19 24 9 26 -8 2 -12 9 -9 17 4 9 -4 15 -23 17 -24 3 -28 7 -28 36 0 35 -3 40 -11 17z"/>
 <path d="M1665 2311 c-3 -17 -4 -34 -2 -39 5 -6 -15 -7 -55 -3 -4 1 -5 8 -2 16 4 8 1 15 -5 15 -6 0 -11 -8 -11 -17 0 -16 -2 -16 -11 -3 -16 22 -3 -84 14 -119 11 -22 11 -29 0 -39 -8 -8 -13 -34 -12 -65 1 -54 16 -157 18 -122 1 14 4 16 13 7 8 -8 8 -15 -2 -26 -10 -13 -9 -17 6 -22 11 -4 24 -9 29 -11 6 -3 1 3 -10 12 -14 12 -16 19 -7 22 14 6 16 33 2 33 -19 0 -10 38 16 69 31 37 66 41 82 9 l12 -23 -3 25 c-5 55 -106 24 -122 -37 -5 -21 -8 -24 -16 -12 -18 28 -10 91 16 125 14 18 25 37 25 42 0 6 13 14 28 20 52 18 83 64 40 59 -21 -2 -23 2 -23 50 0 60 -10 78 -20 34z"/>
 <path d="M1165 2310 c-4 -6 -14 -10 -23 -9 -30 3 -29 0 14 -47 24 -27 48 -44 55 -41 10 4 9 6 -3 6 -29 1 -21 21 8 21 20 0 25 -4 20 -16 -5 -14 -4 -15 9 -4 8 7 13 21 10 30 -3 11 1 20 10 24 20 7 19 36 -1 36 -8 0 -23 -7 -32 -16 -15 -15 -17 -15 -33 5 -19 24 -25 25 -34 11z"/>
 <path d="M3037 2258 c-2 -18 -1 -42 3 -53 5 -13 8 -3 8 33 1 59 -3 67 -11 20z"/>
 <path d="M1081 2267 c-30 -15 -41 -40 -16 -35 10 1 24 13 33 26 17 25 16 26 -17 9z"/>
 <path d="M1140 2231 c0 -5 7 -16 15 -25 14 -13 13 -19 -5 -50 -20 -36 -20 -36 0 -36 17 0 19 5 14 25 -5 20 -1 27 22 37 27 11 28 12 7 15 -12 3 -25 13 -28 24 -6 19 -25 27 -25 10z"/>
 <path d="M3020 2154 c-13 -33 -13 -32 11 -44 18 -10 19 -10 10 8 -5 10 -7 28 -4 40 8 31 -5 27 -17 -4z"/>
 <path d="M2600 2096 c0 -17 -8 -27 -27 -34 -18 -7 -22 -11 -10 -11 18 -1 57 32 57 48 0 6 -4 13 -10 16 -6 3 -10 -5 -10 -19z"/>
 <path d="M3667 2091 c-9 -9 -23 -22 -31 -29 -9 -7 -16 -20 -16 -30 1 -12 8 -8 29 16 30 35 67 36 58 1 -6 -20 1 -23 21 -11 9 6 5 16 -17 39 -26 28 -30 29 -44 14z"/>
 <path d="M1750 2039 c0 -6 5 -20 11 -31 9 -17 9 -20 -4 -15 -11 4 -13 0 -10 -14 3 -11 -3 -29 -13 -42 -19 -21 -19 -21 0 -7 15 12 20 12 23 3 7 -20 23 -15 23 7 0 11 -5 20 -10 20 -7 0 -7 6 -1 18 10 20 3 72 -10 72 -5 0 -9 -5 -9 -11z"/>
 <path d="M2673 1993 c-31 -6 -29 -23 2 -23 16 0 25 6 25 15 0 8 -1 14 -2 14 -2 -1 -13 -4 -25 -6z"/>
 <path d="M1300 1945 c0 -17 18 -19 38 -6 11 7 10 10 -3 15 -26 10 -35 7 -35 -9z"/>
 <path d="M2973 1878 c-6 -7 -13 -21 -17 -32 -4 -12 -13 -17 -26 -13 -30 8 -36 -13 -9 -34 l24 -19 -22 0 c-13 0 -23 -4 -23 -9 0 -9 69 -96 71 -89 8 32 3 48 -13 48 -10 0 -18 4 -18 9 0 15 29 33 44 28 8 -3 20 1 26 9 7 8 24 14 39 14 24 -1 25 -1 7 -15 -10 -7 -15 -18 -11 -24 10 -18 36 -13 42 8 3 13 16 20 39 23 32 4 34 2 34 -27 0 -26 7 -36 41 -58 22 -15 48 -27 57 -26 15 0 14 1 -1 8 -10 4 -18 11 -18 16 0 6 -14 15 -32 21 -26 9 -31 16 -29 36 3 34 -21 52 -59 44 -31 -6 -69 7 -69 24 0 6 6 10 14 10 15 0 28 24 19 34 -3 3 -18 2 -34 -1 -21 -4 -30 -1 -35 11 -7 19 -28 21 -41 4z"/>
 <path d="M1616 1745 c-3 -9 -5 -49 -4 -88 l1 -72 7 85 c6 92 6 100 -4 75z"/>
 <path d="M3416 1743 c12 -2 30 -13 40 -24 9 -10 25 -19 36 -19 22 0 23 -18 2 -41 -12 -13 -12 -19 -3 -25 7 -4 10 -3 5 4 -3 6 8 22 26 36 l32 25 -30 6 c-49 11 -56 14 -49 25 3 5 0 7 -8 4 -8 -3 -18 -1 -22 5 -3 6 -16 10 -28 10 l-22 -2 21 -4z"/>
 <path d="M2998 1727 c8 -9 10 -21 6 -29 -5 -7 -9 -17 -9 -23 0 -5 -8 -9 -18 -7 -23 4 -23 -34 1 -43 13 -5 14 -3 6 5 -9 9 -4 20 21 43 l33 32 -26 20 c-20 14 -23 15 -14 2z"/>
 <path d="M1801 1618 c-1 -26 10 -48 25 -48 18 0 18 17 0 27 -7 4 -16 15 -19 23 -4 12 -6 12 -6 -2z"/>
 <path d="M2565 1601 c4 -21 2 -30 -10 -35 -11 -4 -13 -11 -7 -23 11 -21 15 -110 6 -124 -4 -6 -11 -5 -20 2 -20 16 -25 8 -16 -26 10 -35 28 -43 37 -15 5 15 14 20 35 18 16 -1 40 4 54 12 27 14 51 5 26 -10 -11 -7 -12 -13 -1 -36 10 -22 14 -25 22 -13 5 7 9 21 9 30 0 9 14 22 31 29 29 12 33 12 50 -11 15 -20 19 -21 19 -6 0 9 -4 17 -9 17 -5 0 -11 10 -13 22 -2 13 -11 22 -23 24 -11 1 -31 5 -45 9 -23 6 -24 5 -7 -8 24 -20 21 -27 -9 -27 -23 0 -25 3 -22 31 2 23 -2 35 -16 43 -14 8 -20 8 -23 0 -2 -6 -10 -20 -18 -30 -19 -26 -32 -10 -41 50 -6 43 -5 48 9 43 23 -9 33 14 14 28 -10 7 -17 17 -17 24 0 6 -5 11 -11 11 -6 0 -8 -11 -4 -29z"/>
 <path d="M3177 1624 c-16 -16 -5 -25 26 -22 17 2 31 8 30 13 -3 12 -46 19 -56 9z"/>
 <path d="M2678 1588 c-10 -12 -18 -26 -18 -30 0 -11 28 -10 34 1 3 5 14 7 25 4 12 -3 21 2 25 14 6 14 5 16 -5 6 -14 -14 -30 -17 -28 -5 6 36 -9 41 -33 10z"/>
 <path d="M2938 1555 c-41 -48 -35 -74 8 -39 18 14 18 15 -3 4 -30 -14 -29 -6 2 28 14 15 25 30 25 34 0 12 -2 10 -32 -27z"/>
 <path d="M3253 1583 c18 -5 24 -23 8 -23 -5 0 -16 -3 -24 -6 -10 -3 -17 2 -20 13 -3 12 -5 9 -6 -9 -1 -33 -3 -32 37 -12 37 18 43 45 10 43 -17 -1 -19 -2 -5 -6z"/>
 <path d="M2494 1536 c-3 -9 -17 -16 -29 -16 -21 0 -42 -16 -33 -25 5 -6 98 18 98 25 0 4 -7 13 -15 20 -12 10 -16 9 -21 -4z"/>
 <path d="M3150 1521 c0 -14 23 -28 58 -36 20 -4 32 -3 32 4 0 6 -8 11 -18 11 -10 0 -27 7 -38 15 -22 17 -34 19 -34 6z"/>
 <path d="M1843 1504 c-7 -20 -1 -24 25 -17 28 7 28 19 1 26 -12 3 -22 0 -26 -9z"/>
 <path d="M2319 1506 c-16 -17 6 -59 37 -72 19 -8 34 -19 34 -24 0 -6 5 -10 10 -10 19 0 10 55 -15 85 l-25 30 6 -26 c8 -39 -13 -45 -28 -9 -7 18 -16 29 -19 26z"/>
 <path d="M2750 1487 c0 -20 4 -24 20 -20 19 5 36 21 29 27 -2 2 -14 7 -26 10 -20 6 -23 4 -23 -17z"/>
 <path d="M1613 1420 c0 -83 0 -83 7 -26 4 32 4 70 0 85 -4 16 -7 -6 -7 -59z"/>
 <path d="M2464 1437 c-21 -23 -21 -71 -1 -64 10 3 30 77 23 84 -2 2 -11 -7 -22 -20z"/>
 <path d="M987 1400 c-4 -17 0 -20 32 -20 20 0 46 7 57 16 18 15 18 15 -8 10 -15 -4 -30 -2 -33 4 -11 17 -42 11 -48 -10z"/>
 <path d="M2021 1403 c-26 -9 -46 -23 -48 -34 -4 -15 -9 -17 -19 -8 -15 13 -34 4 -34 -17 0 -8 -7 -14 -15 -14 -8 0 -12 6 -9 14 9 24 -14 28 -35 7 -19 -19 -12 -39 9 -26 5 3 21 -5 34 -19 13 -14 31 -26 40 -26 9 0 16 -6 16 -14 0 -15 45 -30 60 -21 17 11 11 27 -21 57 -22 21 -28 33 -20 41 7 7 12 5 17 -6 3 -9 10 -14 15 -11 5 3 6 10 3 16 -3 5 9 25 27 44 18 19 31 34 28 33 -2 0 -24 -8 -48 -16z m-61 -85 c-1 -31 -1 -32 -15 -14 -10 13 -15 15 -15 6 0 -7 -3 -11 -6 -8 -8 8 14 48 26 48 6 0 10 -15 10 -32z"/>
 <path d="M2114 1383 c-8 -13 -14 -14 -32 -4 -23 12 -42 8 -42 -10 0 -5 12 -9 26 -9 22 0 25 -4 21 -20 -4 -15 -1 -20 11 -18 11 2 19 16 23 38 8 41 7 45 -7 23z"/>
 <path d="M2370 1390 c0 -6 7 -24 15 -40 8 -16 16 -47 18 -69 4 -54 12 -59 39 -25 24 30 31 68 16 97 -10 19 -48 24 -48 5 0 -6 -3 -8 -7 -4 -4 4 -8 15 -8 23 0 9 -6 18 -12 20 -7 3 -13 0 -13 -7z"/>
 <path d="M2732 1370 c-12 -21 -9 -40 8 -40 12 0 18 23 11 42 -6 16 -7 16 -19 -2z"/>
 <path d="M2600 1371 c0 -5 9 -11 20 -14 28 -7 25 -27 -5 -27 -32 0 -32 -12 -1 -26 20 -9 27 -8 39 7 21 24 2 69 -30 69 -13 0 -23 -4 -23 -9z"/>
 <path d="M2210 1350 c0 -5 9 -10 21 -10 11 0 18 -4 14 -9 -8 -13 35 -51 57 -51 10 0 18 -5 18 -12 0 -6 6 -4 13 7 8 10 19 15 25 11 6 -3 13 -2 17 4 7 11 -3 13 -50 11 -22 -1 -38 7 -58 29 -28 29 -57 40 -57 20z"/>
 <path d="M2138 1319 c-22 -23 -22 -29 -3 -29 8 0 15 -7 15 -15 0 -9 8 -19 18 -22 9 -4 20 -11 24 -17 9 -14 15 -6 20 24 2 19 -1 25 -17 25 -12 0 -21 8 -23 20 -6 30 -15 34 -34 14z"/>
 <path d="M2512 1303 c2 -14 9 -28 16 -31 18 -6 15 45 -4 52 -12 5 -15 0 -12 -21z"/>
 <path d="M921 1304 c6 -8 18 -14 27 -14 9 0 26 -10 39 -22 16 -15 23 -17 23 -8 0 11 3 11 12 2 18 -18 23 -15 26 12 1 20 -5 27 -31 35 -17 5 -49 10 -70 9 -31 0 -36 -2 -26 -14z"/>
 <path d="M1625 1307 c3 -10 5 -25 5 -34 0 -11 7 -13 29 -8 19 4 32 2 37 -7 4 -7 4 -10 -1 -6 -11 11 -34 -22 -35 -49 0 -14 -6 -23 -15 -23 -8 0 -15 -9 -15 -20 0 -24 4 -25 24 -4 15 14 16 14 16 0 0 -9 5 -16 11 -16 6 0 9 7 5 15 -3 8 0 14 7 12 7 -1 15 -11 19 -22 5 -13 6 -10 3 11 -2 17 1 36 8 43 8 8 8 11 0 11 -7 0 -15 -4 -18 -10 -9 -15 -35 -12 -35 4 0 8 10 22 21 30 30 20 18 48 -18 44 -22 -2 -31 3 -41 22 -7 14 -10 17 -7 7z"/>
 <path d="M2970 1287 c0 -8 -6 -20 -14 -26 -8 -7 -11 -22 -8 -38 l5 -26 -64 6 c-40 3 -53 2 -34 -3 17 -4 46 -8 65 -9 20 0 41 -6 47 -12 10 -10 31 -14 96 -18 26 -2 20 -26 -10 -40 -71 -33 -136 -42 -248 -34 -60 4 -112 7 -115 6 -64 -12 -92 -14 -86 -5 6 10 87 51 150 77 22 8 37 18 34 21 -4 3 -14 1 -25 -4 -10 -6 -45 -22 -78 -37 -33 -14 -72 -33 -86 -40 -39 -22 -137 -45 -186 -45 -24 0 -54 -6 -66 -14 -31 -19 -117 -36 -187 -36 -32 0 -62 -5 -66 -11 -4 -7 0 -9 14 -5 11 4 33 4 48 0 25 -6 21 -9 -39 -26 -37 -10 -86 -30 -109 -44 -77 -49 -212 -204 -193 -222 4 -4 10 -1 12 6 10 27 80 111 122 146 101 84 178 111 346 120 82 4 113 10 175 36 141 59 172 64 380 60 58 -1 112 1 120 4 8 2 60 21 115 41 70 26 123 39 178 43 86 5 109 17 44 21 -26 1 -50 10 -65 23 -23 23 -20 33 13 41 13 3 10 5 -11 6 -18 0 -34 7 -38 16 -6 17 -36 21 -36 4 0 -6 9 -13 20 -16 11 -3 20 -13 20 -23 0 -10 7 -20 15 -24 23 -9 18 -28 -7 -24 -16 2 -22 9 -21 23 2 25 -17 37 -36 22 -12 -9 -13 -9 -7 1 4 7 1 12 -8 12 -23 0 -20 -17 5 -30 11 -7 18 -14 15 -17 -3 -4 -14 1 -23 9 -28 25 -95 50 -106 39 -14 -14 0 -30 21 -24 10 2 24 -3 31 -11 8 -9 20 -16 28 -16 8 0 11 -5 8 -10 -7 -11 -117 -7 -147 5 -24 10 -23 21 3 28 13 4 18 10 14 17 -4 7 -1 16 6 21 11 6 11 13 3 26 -14 22 -34 28 -34 10z m-455 -234 c-11 -3 -27 -11 -35 -18 -26 -21 -82 -37 -154 -42 -85 -6 -81 7 11 36 60 18 109 26 178 28 l20 1 -20 -5z"/>
 <path d="M2560 1275 c0 -8 7 -15 16 -15 13 0 15 -7 11 -30 -4 -16 -3 -32 2 -34 5 -3 11 11 14 31 5 27 2 39 -11 49 -23 18 -32 17 -32 -1z"/>
 <path d="M3376 1253 c-4 -5 -15 -8 -24 -9 -10 -1 -30 -2 -47 -3 -23 -1 -27 -3 -15 -11 18 -12 77 -2 105 16 15 11 16 14 4 14 -9 0 -19 -3 -23 -7z"/>
 <path d="M1510 1203 c0 -33 15 -60 24 -45 8 13 -4 72 -15 72 -5 0 -9 -12 -9 -27z"/>
 <path d="M1733 1106 c15 -11 15 -15 3 -25 -10 -9 -12 -20 -6 -40 5 -20 3 -33 -10 -49 -22 -27 -34 -28 -27 -3 3 13 -5 26 -24 40 -37 27 -41 27 -37 -6 2 -22 8 -28 26 -26 31 4 29 -25 -3 -37 -17 -7 -25 -17 -24 -32 1 -16 3 -18 6 -6 6 24 33 32 33 9 0 -20 -23 -45 -32 -35 -4 3 -9 -13 -13 -36 -4 -27 -3 -46 4 -53 6 -6 11 -18 11 -28 0 -12 6 -15 27 -11 22 4 25 2 20 -12 -4 -10 -3 -15 3 -11 6 3 10 10 10 15 0 13 -51 65 -61 63 -5 -2 -9 7 -9 18 0 18 2 19 15 9 11 -9 15 -9 15 -1 0 17 62 70 83 71 9 0 17 -7 17 -15 0 -8 -4 -15 -9 -15 -13 0 -34 -57 -27 -75 3 -8 11 -15 18 -14 10 0 10 2 1 6 -19 7 -15 41 7 63 11 11 20 27 20 35 0 8 7 15 16 15 20 0 74 31 74 43 0 4 -5 5 -11 2 -6 -4 -9 4 -7 22 2 20 -1 28 -12 28 -8 0 -14 -5 -13 -11 3 -15 -46 -60 -73 -68 -19 -6 -22 -3 -20 23 2 37 11 47 30 32 12 -10 17 -8 26 9 8 16 8 25 0 35 -6 7 -10 17 -9 21 5 20 -22 64 -38 64 -17 -1 -17 -1 0 -14z"/>
 <path d="M1997 1001 c-45 -6 -56 -13 -141 -98 -51 -51 -90 -93 -87 -93 3 0 48 41 99 90 82 79 98 90 130 91 20 1 48 5 62 9 30 10 10 10 -63 1z"/>
 </g>
<g id="layer2" fill="#161616" stroke="none">
 <path d="M1991 3979 c-222 -25 -399 -77 -607 -180 -508 -249 -864 -723 -966 -1287 -30 -166 -30 -448 0 -614 118 -650 577 -1180 1201 -1387 351 -117 748 -117 1104 -1 629 204 1090 734 1209 1388 30 167 30 448 -1 617 -133 737 -717 1320 -1449 1446 -136 23 -370 32 -491 18z m324 -215 c86 -15 132 -33 147 -60 5 -7 17 -10 30 -6 21 5 22 4 9 -11 -12 -15 -11 -17 3 -17 9 0 16 6 17 13 0 6 5 2 11 -10 6 -13 15 -23 19 -23 5 0 13 -9 19 -20 10 -19 9 -20 -14 -14 -21 5 -24 3 -19 -14 5 -20 41 -42 68 -42 8 0 15 -4 15 -10 0 -5 7 -10 15 -10 8 0 15 -7 15 -16 0 -10 6 -13 18 -10 9 3 24 1 32 -5 13 -9 13 -10 0 -8 -26 3 -40 -1 -40 -10 0 -16 30 -21 51 -8 17 10 22 9 31 -8 6 -10 25 -32 42 -47 28 -26 29 -28 9 -28 -25 0 -39 -15 -23 -25 6 -4 8 -15 5 -26 -8 -25 23 -26 41 -1 12 16 14 16 48 -2 21 -11 39 -31 45 -48 6 -16 24 -47 41 -68 16 -21 30 -41 30 -45 0 -8 91 -105 178 -191 30 -29 42 -49 38 -61 -3 -10 1 -29 9 -43 8 -14 15 -20 15 -15 1 6 3 21 5 35 2 14 -1 38 -7 53 -17 45 1 45 41 -2 23 -26 43 -41 50 -37 6 4 14 0 17 -11 21 -63 32 -76 77 -100 47 -23 78 -51 122 -108 11 -14 43 -49 70 -78 100 -106 118 -135 137 -221 40 -185 32 -305 -38 -550 -37 -126 -47 -148 -69 -140 -7 3 -23 1 -34 -6 -15 -7 -21 -7 -21 0 0 6 7 13 15 16 8 4 15 14 15 24 0 16 -6 18 -32 13 -32 -5 -33 -3 -33 29 0 18 3 36 8 39 16 12 -6 38 -36 41 -41 4 -56 46 -35 92 13 26 13 36 1 64 -7 18 -20 32 -31 32 -9 0 -26 3 -37 6 -14 3 -30 -4 -48 -20 -16 -14 -31 -26 -35 -26 -4 0 -7 -18 -7 -41 0 -22 -3 -43 -7 -45 -18 -11 -6 -36 23 -46 35 -12 36 -41 2 -46 -23 -3 -33 -21 -39 -69 l-4 -32 70 6 c48 4 74 2 84 -6 8 -7 21 -9 27 -5 8 4 9 3 5 -5 -8 -12 -1 -15 48 -26 l30 -6 -29 -23 c-17 -14 -29 -33 -29 -49 -1 -22 4 -29 31 -38 56 -18 57 -34 6 -129 -55 -102 -121 -201 -142 -215 -29 -18 -76 -24 -107 -13 -17 6 -40 8 -50 4 -16 -6 -16 -9 7 -31 16 -16 37 -25 66 -26 l42 -3 -30 -37 c-57 -72 -237 -200 -409 -292 -184 -98 -432 -179 -639 -208 -101 -14 -182 -7 -350 32 -120 28 -121 28 -85 80 40 59 122 141 172 173 23 14 72 34 109 45 60 16 65 19 38 24 -16 3 -48 4 -70 3 -22 -1 -59 -3 -82 -4 -38 -2 -50 -10 -130 -88 -90 -88 -128 -113 -146 -95 -12 12 -2 55 18 75 42 42 -6 49 -51 7 -45 -41 -49 -62 -19 -96 15 -15 24 -33 21 -40 -6 -18 -46 -7 -53 14 -2 9 -8 24 -13 33 -5 9 -7 47 -3 83 5 58 9 68 30 76 30 11 31 40 1 36 -18 -2 -24 4 -26 25 -4 34 0 34 37 7 19 -14 27 -27 24 -40 -7 -25 5 -24 27 3 13 16 15 29 10 49 -6 19 -4 31 5 39 11 9 10 15 -6 31 -10 10 -19 29 -19 42 -1 20 -2 21 -14 5 -16 -22 -26 -23 -26 -2 0 14 -1 14 -16 0 -20 -21 -24 -20 -24 4 0 11 7 20 15 20 9 0 15 9 15 23 1 27 24 60 35 49 5 -4 5 -1 1 6 -5 8 -18 11 -35 7 -26 -6 -28 -4 -38 47 -6 29 -12 148 -12 263 -1 116 -4 218 -7 227 -3 9 -7 41 -9 70 -2 29 -6 94 -10 144 -6 74 -5 93 7 104 13 12 13 18 0 43 -14 28 -26 145 -37 355 -3 52 -7 98 -10 102 -3 5 -21 2 -40 -6 -19 -8 -57 -14 -85 -14 -55 0 -68 -17 -20 -27 17 -3 41 -19 55 -36 21 -27 22 -34 11 -56 -7 -14 -11 -34 -8 -44 4 -21 -27 -35 -38 -17 -14 22 -32 -1 -28 -36 3 -26 0 -35 -14 -40 -10 -3 -15 -10 -12 -16 4 -5 0 -21 -7 -35 -9 -17 -10 -29 -3 -40 15 -24 29 -12 28 25 -1 36 24 46 33 12 3 -11 9 -20 14 -20 18 0 9 -17 -16 -30 -27 -14 -33 -30 -12 -30 30 0 48 -24 41 -57 -4 -18 -10 -30 -15 -27 -13 8 -11 -48 4 -79 6 -15 18 -27 26 -27 10 0 12 -9 7 -38 -7 -48 1 -58 24 -30 l17 22 17 -31 c12 -24 13 -34 4 -39 -6 -4 -14 -2 -16 4 -2 7 -7 12 -11 12 -12 0 -11 -122 1 -144 7 -13 6 -21 -3 -27 -8 -4 -16 -3 -20 2 -9 15 -19 -31 -13 -58 4 -13 12 -23 20 -23 8 0 15 -6 16 -12 5 -45 8 -79 12 -123 5 -74 5 -75 18 -73 6 2 14 -5 16 -14 2 -11 -2 -18 -12 -18 -9 0 -16 -4 -16 -9 0 -5 -9 -11 -20 -14 -11 -3 -20 -13 -20 -22 0 -11 5 -15 15 -11 10 4 15 -1 15 -15 0 -11 4 -18 9 -15 5 3 11 -1 15 -9 3 -8 1 -15 -4 -15 -6 0 -10 -18 -10 -40 0 -22 -4 -40 -9 -40 -5 0 -12 -14 -16 -30 -4 -17 -10 -28 -15 -25 -4 3 -11 -2 -14 -11 -9 -24 -7 -35 7 -33 23 3 57 -13 57 -27 0 -8 -11 -15 -27 -15 -22 -1 -24 -3 -7 -6 26 -5 39 -42 19 -49 -8 -3 -20 -3 -27 1 -7 3 -1 -4 13 -17 25 -21 26 -27 19 -73 -5 -27 -10 -58 -12 -68 -4 -18 -28 -47 -28 -33 0 5 -6 4 -12 -2 -18 -14 -123 45 -109 62 18 22 5 50 -28 60 -39 11 -50 2 -28 -22 10 -10 17 -22 17 -26 0 -8 -61 33 -72 49 -4 5 -13 10 -20 10 -7 0 -18 11 -25 25 -7 14 -20 24 -28 22 -17 -3 -78 42 -68 51 3 3 4 70 2 149 -6 325 -3 301 -38 293 -16 -3 -32 -2 -35 4 -7 11 29 52 48 55 16 2 14 21 -3 21 -8 0 -16 6 -19 13 -2 6 1 12 6 12 17 0 29 53 21 95 -4 22 -7 74 -7 115 0 41 -5 120 -11 175 -8 86 -9 130 -3 169 1 5 13 -1 27 -14 13 -12 22 -26 20 -30 -9 -14 30 -39 45 -30 12 8 10 10 -8 10 -13 0 -20 4 -17 10 4 6 11 8 16 5 5 -3 6 1 3 10 -4 8 -1 22 6 30 10 11 9 18 -4 30 -19 20 -20 32 -3 38 8 3 7 10 -7 26 -25 27 -28 27 -48 -9 -9 -17 -24 -30 -33 -30 -19 0 -19 9 1 31 13 14 14 24 5 56 -6 21 -11 56 -11 79 0 57 -17 100 -47 119 -27 18 -53 14 -53 -9 0 -7 -12 -17 -26 -20 -28 -7 -54 -28 -54 -44 0 -6 -7 -13 -16 -16 -10 -4 -14 -15 -12 -33 2 -22 9 -29 31 -31 19 -2 27 -8 23 -17 -3 -8 1 -15 9 -17 10 -2 8 -9 -9 -26 -23 -21 -24 -21 -19 -2 4 14 0 20 -11 20 -10 0 -16 -9 -16 -25 0 -19 7 -26 38 -34 51 -15 77 -14 92 4 7 8 20 15 29 15 13 0 17 -12 19 -65 l3 -65 -31 0 c-22 0 -43 11 -71 37 -38 35 -93 58 -111 47 -19 -12 -5 -42 39 -81 26 -24 50 -43 54 -43 4 0 20 -26 36 -57 26 -54 28 -67 28 -178 0 -134 -10 -181 -63 -295 -19 -41 -43 -97 -52 -125 l-17 -50 -61 125 c-111 229 -186 497 -187 670 0 100 21 230 37 230 5 0 22 -14 38 -32 31 -33 53 -32 32 2 -7 11 -12 29 -12 40 0 11 -3 20 -7 20 -5 0 -16 11 -25 25 -14 19 -16 29 -8 51 10 26 11 26 25 8 8 -11 14 -14 15 -6 0 13 80 18 80 4 0 -4 -6 -16 -14 -27 -7 -11 -17 -35 -21 -52 -11 -53 17 -41 43 18 26 60 27 78 6 127 -15 36 -16 36 -25 14 -5 -13 -13 -20 -19 -17 -5 3 -20 8 -31 10 -32 6 -33 10 -13 64 17 47 19 49 38 35 11 -8 29 -14 39 -14 25 0 34 30 14 45 -10 7 -17 22 -17 35 0 17 3 20 13 12 6 -5 26 -13 43 -16 29 -6 72 -41 73 -58 1 -5 1 -14 2 -20 0 -7 5 -2 10 12 6 14 8 37 5 53 -4 20 -1 27 9 27 19 0 19 34 1 63 -13 19 -13 27 0 62 22 64 17 72 -21 35 -37 -36 -45 -64 -19 -74 22 -8 9 -23 -25 -28 -26 -4 -29 -2 -20 13 12 24 11 29 -5 29 -8 0 -16 -5 -18 -12 -2 -6 -12 -9 -21 -5 -20 8 -17 16 55 140 39 68 58 83 58 47 0 -11 3 -19 8 -18 4 1 20 -4 35 -10 16 -7 34 -12 42 -12 8 0 17 -4 20 -10 3 -5 12 -10 18 -10 7 0 0 10 -15 21 -16 11 -28 29 -28 40 0 10 -5 38 -12 63 -16 60 -1 92 81 175 87 87 359 271 362 244 7 -55 5 -80 -8 -95 -24 -27 -28 -100 -8 -142 12 -25 14 -40 7 -49 -5 -6 -12 -22 -14 -34 -3 -22 -4 -22 -32 -8 -16 9 -31 13 -34 10 -7 -7 41 -55 56 -55 10 0 10 -3 -2 -15 -25 -25 -30 -57 -12 -67 11 -6 15 -16 11 -28 -3 -10 -1 -22 6 -25 8 -6 7 -10 -2 -16 -9 -6 0 -6 20 -2 35 6 35 6 15 -14 -10 -11 -29 -24 -42 -28 -17 -5 -21 -12 -17 -26 4 -12 1 -21 -9 -25 -13 -5 -12 -10 6 -35 19 -26 21 -33 10 -62 -16 -45 -18 -43 36 -51 26 -3 66 -14 90 -23 39 -15 42 -19 37 -43 -8 -36 15 -55 51 -43 40 13 51 36 34 70 -7 15 -14 32 -14 38 -1 5 -15 19 -33 30 -37 24 -39 29 -50 255 -14 269 -7 540 13 547 7 2 14 -5 17 -17 7 -26 27 -26 27 0 0 22 19 34 70 45 19 4 51 19 70 35 20 15 69 37 110 49 l75 21 31 -33 c17 -17 54 -54 83 -81 48 -47 64 -76 41 -76 -5 0 -10 -9 -10 -20 0 -11 5 -20 10 -20 6 0 10 9 10 20 0 27 16 25 36 -5 15 -24 44 -35 44 -17 0 23 -28 62 -63 87 -22 15 -46 43 -53 61 -8 19 -21 34 -29 34 -11 0 -14 7 -9 24 3 15 1 27 -8 32 -8 6 10 13 52 20 93 17 163 16 265 -2z m559 -184 c67 -33 166 -91 221 -128 90 -60 100 -70 103 -100 2 -19 -3 -41 -11 -50 -8 -10 -17 -25 -21 -36 -6 -18 -7 -18 -28 0 -12 11 -29 25 -37 31 -19 15 -192 169 -206 184 -5 6 -44 44 -85 85 -41 40 -71 74 -66 74 5 0 63 -27 130 -60z m557 -464 c78 -115 207 -361 196 -373 -20 -19 -230 210 -274 300 -29 58 -63 188 -63 239 1 21 3 20 31 -12 16 -19 66 -89 110 -154z m-2487 2 c-1 -13 -3 -29 -3 -36 -1 -10 -4 -10 -15 0 -11 11 -11 16 1 35 19 28 20 28 17 1z m91 -1708 c3 -6 18 -8 33 -4 26 5 26 5 8 -10 -11 -9 -37 -16 -57 -16 -32 0 -36 3 -32 20 6 21 37 27 48 10z m-18 -101 c26 -8 32 -15 31 -35 -3 -27 -8 -30 -26 -12 -9 9 -12 9 -12 -2 0 -9 -7 -7 -23 8 -13 12 -30 22 -39 22 -9 0 -21 6 -27 14 -10 12 -5 14 26 14 21 1 53 -4 70 -9z m517 -110 c7 -36 -2 -58 -15 -38 -11 18 -11 69 0 69 5 0 11 -14 15 -31z"/>
 <path d="M2165 3472 c-9 -9 6 -22 27 -22 11 0 39 -21 64 -49 50 -56 104 -82 59 -29 -14 16 -25 33 -25 38 0 4 -8 6 -19 3 -13 -3 -20 2 -24 19 -4 15 -18 27 -41 34 -20 6 -38 9 -41 6z"/>
 <path d="M1607 3445 c-4 -9 2 -19 13 -25 16 -8 20 -8 20 3 0 8 -6 20 -14 26 -10 9 -15 8 -19 -4z"/>
 <path d="M1630 3373 c0 -5 9 -23 20 -41 14 -23 26 -32 36 -28 9 3 20 6 25 6 5 0 9 5 9 11 0 6 -7 8 -17 5 -10 -4 -14 -4 -10 0 9 9 -32 54 -50 54 -7 0 -13 -3 -13 -7z"/>
 <path d="M2346 3308 c10 -13 29 -35 43 -50 33 -37 21 -45 -27 -20 l-40 20 -6 -40 c-6 -37 -3 -45 23 -72 16 -17 31 -42 33 -56 2 -18 10 -26 28 -28 14 -2 29 -7 34 -12 5 -5 19 -4 33 1 18 7 34 4 63 -11 22 -11 44 -20 51 -20 12 0 93 -64 148 -117 37 -35 54 -42 45 -18 -3 8 -9 13 -12 12 -4 -1 -17 8 -29 21 -13 12 -20 22 -17 22 3 0 -2 7 -10 16 -9 8 -16 22 -16 30 0 8 -5 14 -11 14 -6 0 -16 6 -24 13 -7 6 -25 21 -40 32 -50 38 -65 55 -65 75 0 11 7 20 15 20 8 0 15 2 15 5 0 11 -36 45 -48 45 -7 0 -11 4 -8 9 3 5 -8 14 -24 21 -24 10 -33 10 -45 0 -11 -10 -15 -10 -15 0 0 6 -22 34 -49 61 -50 50 -79 67 -45 27z"/>
 <path d="M2110 3294 c0 -9 13 -28 28 -44 16 -15 36 -40 46 -55 28 -43 41 -9 17 41 -22 44 -91 88 -91 58z"/>
 <path d="M1781 3212 c-16 -18 -26 -43 -29 -75 -2 -26 -9 -50 -14 -53 -5 -3 -2 -15 8 -25 16 -18 16 -20 0 -38 -15 -16 -15 -19 -1 -24 8 -4 15 -18 15 -32 0 -14 7 -40 16 -57 14 -27 14 -37 4 -69 -7 -21 -14 -59 -14 -84 -1 -30 -5 -44 -13 -41 -6 3 -14 -2 -17 -10 -9 -23 -7 -27 9 -20 19 7 19 -5 1 -49 -8 -19 -12 -35 -8 -35 4 0 1 -4 -5 -8 -10 -7 -10 -14 0 -35 6 -15 15 -27 20 -27 10 0 9 7 -5 29 -15 24 4 51 31 44 16 -4 18 4 19 74 1 85 21 158 43 158 10 0 15 -16 16 -55 5 -97 23 -169 45 -172 10 -2 19 -6 18 -10 0 -5 0 -19 0 -32 0 -30 -66 -102 -102 -110 -32 -7 -34 -22 -13 -72 8 -19 17 -68 20 -107 13 -189 16 -212 24 -215 5 -2 7 -21 4 -42 -6 -44 8 -70 38 -70 17 0 17 3 7 20 -18 28 -4 34 34 14 24 -13 56 -18 120 -19 84 0 88 1 120 31 34 32 88 53 88 34 0 -5 7 -10 16 -10 13 0 14 -8 8 -46 -5 -37 -4 -46 7 -42 8 3 13 14 11 24 -2 16 1 15 18 -6 17 -21 21 -23 30 -10 12 18 13 0 1 -19 -6 -9 -11 -10 -15 -2 -4 6 -13 8 -19 4 -7 -4 -19 -8 -27 -8 -24 0 -17 -30 8 -33 19 -3 21 -6 11 -18 -9 -11 -9 -17 1 -29 10 -12 10 -15 -1 -15 -8 0 -25 -3 -38 -7 -17 -4 -22 -3 -17 6 4 6 12 9 17 6 5 -4 9 -1 9 5 0 6 -8 10 -17 8 -20 -3 -41 35 -50 87 -6 39 11 49 21 13 8 -35 27 -8 20 29 -5 25 -10 29 -30 25 -13 -2 -22 -7 -21 -11 6 -11 -61 -72 -68 -61 -5 8 -12 7 -22 -2 -8 -7 -25 -17 -37 -23 -22 -12 -23 -18 -13 -115 6 -60 15 -90 27 -90 4 0 7 -8 6 -17 -1 -13 5 -17 18 -15 11 2 25 -2 30 -10 16 -20 76 -17 76 4 0 30 22 32 47 3 23 -26 25 -27 39 -9 9 11 13 14 10 7 -4 -6 7 -18 24 -26 26 -14 30 -14 30 -1 0 9 -5 25 -11 36 -10 18 -8 25 10 39 21 17 28 39 13 39 -4 0 -12 -4 -18 -9 -5 -5 -19 -12 -31 -16 -32 -9 -31 18 1 33 28 12 42 62 18 62 -8 0 -13 3 -9 6 3 4 18 4 32 0 20 -5 25 -13 25 -36 0 -21 4 -28 14 -24 25 10 29 38 7 53 -26 17 -27 31 -3 31 10 0 23 5 30 12 9 9 12 7 12 -8 0 -29 37 -61 52 -46 9 9 9 12 -3 12 -12 0 -12 2 0 9 11 7 9 11 -9 21 -16 9 -20 18 -16 35 9 33 -2 54 -24 48 -26 -7 -49 39 -31 61 9 11 10 20 2 33 -8 14 -11 15 -12 3 -3 -31 -4 -35 -14 -40 -5 -3 -12 9 -15 25 -4 21 -11 31 -28 33 -14 2 -22 10 -22 22 0 11 -8 23 -17 29 -15 8 -16 13 -6 30 10 17 9 28 -6 63 -18 44 -72 130 -113 180 -20 26 -20 29 -5 46 18 20 21 52 11 129 -9 71 -33 93 -26 24 4 -47 3 -50 -22 -57 -29 -7 -67 6 -106 36 -20 15 -23 21 -12 31 6 7 12 23 12 35 0 25 28 40 44 24 35 -35 66 22 66 124 0 67 -24 166 -37 153 -2 -3 -18 9 -35 25 -28 26 -33 27 -46 14 -13 -13 -18 -29 -21 -73 -1 -6 -10 -15 -21 -18 -29 -9 -37 -52 -14 -71 18 -15 18 -15 -4 -11 -14 3 -26 -1 -32 -11 -8 -15 -9 -15 -10 -1 0 8 5 20 11 26 7 7 7 13 1 17 -6 3 -13 2 -17 -4 -15 -24 -25 -6 -25 46 0 50 3 59 31 85 17 16 39 29 50 29 12 0 16 5 12 16 -3 10 -11 13 -22 8 -9 -4 -30 -8 -47 -9 -39 -2 -53 -11 -64 -41 -11 -29 -36 -31 -45 -4 -7 22 11 96 25 105 15 9 12 32 -4 38 -7 3 -26 -1 -41 -9 -15 -8 -29 -13 -31 -11 -7 7 19 95 37 125 36 62 15 85 -30 34z m259 -391 c12 -23 13 -31 3 -31 -17 1 -45 29 -38 39 10 17 23 13 35 -8z m-122 -66 c1 -16 -3 -25 -13 -25 -15 0 -21 31 -8 43 12 13 19 7 21 -18z m162 0 c0 -7 -15 -15 -32 -18 -18 -3 -43 -8 -54 -12 -15 -5 -23 -2 -28 10 -3 9 -2 14 3 11 4 -3 16 2 24 12 19 21 87 18 87 -3z m31 -67 c4 -15 4 -29 1 -32 -11 -12 -40 -6 -46 9 -8 22 -46 18 -102 -10 -50 -25 -69 -22 -62 11 2 12 13 20 28 21 65 5 131 17 136 25 11 17 38 3 45 -24z"/>
 <path d="M1690 3215 c0 -6 6 -17 12 -23 10 -10 8 -14 -9 -18 -29 -8 -33 -23 -29 -112 2 -51 8 -78 19 -89 15 -15 17 -15 23 1 4 10 0 32 -8 49 -14 32 -14 67 2 67 5 0 11 -6 13 -12 3 -7 3 2 0 19 -3 19 0 39 6 47 9 10 9 24 2 48 -5 18 -10 26 -10 18 -1 -13 -2 -13 -11 0 -5 8 -10 10 -10 5z"/>
 <path d="M1102 3169 c2 -7 14 -13 26 -14 29 -2 22 19 -7 23 -15 3 -22 -1 -19 -9z"/>
 <path d="M2213 3092 c-6 -25 -22 -28 -42 -9 -11 10 -12 7 -7 -18 20 -94 20 -95 -1 -95 -11 0 -25 11 -31 25 -12 25 -32 34 -32 14 0 -7 -10 -9 -25 -5 -46 12 -22 -24 37 -53 14 -7 28 -22 31 -32 3 -11 11 -16 23 -13 40 10 134 -125 134 -192 0 -18 5 -36 10 -39 15 -10 12 -58 -6 -84 -22 -30 -6 -46 29 -30 15 7 27 16 27 20 0 4 9 10 19 14 27 8 35 46 10 52 -22 6 -22 5 -10 35 12 31 -30 157 -82 250 -25 45 -37 79 -37 106 0 26 -6 45 -20 57 -20 18 -21 18 -27 -3z"/>
 <path d="M2698 3045 c5 -30 28 -33 35 -6 6 23 0 31 -23 31 -13 0 -16 -6 -12 -25z"/>
 <path d="M2825 2861 c-3 -7 -16 -9 -28 -6 -18 5 -16 1 11 -24 17 -17 32 -33 32 -36 0 -3 36 -42 80 -87 44 -46 80 -89 80 -96 0 -7 7 -15 15 -18 8 -4 15 -11 15 -16 0 -12 30 -37 43 -38 29 -1 -35 92 -131 192 -31 32 -57 65 -58 74 -4 26 -50 69 -59 55z"/>
 <path d="M2225 2795 c3 -16 8 -50 12 -75 6 -45 18 -70 34 -70 14 0 10 48 -6 80 -9 17 -16 33 -16 37 -1 5 -8 19 -15 33 l-15 25 6 -30z"/>
 <path d="M1316 2575 c-3 -8 -12 -12 -21 -9 -8 3 -15 2 -15 -4 0 -11 58 -25 71 -17 11 7 1 32 -16 39 -7 2 -16 -2 -19 -9z"/>
 <path d="M3007 2514 c-15 -20 -17 -33 -11 -62 4 -20 9 -44 10 -52 1 -8 11 -40 23 -71 21 -55 24 -150 6 -178 -3 -6 3 -27 13 -47 l19 -37 33 41 c35 45 75 62 130 59 30 -2 35 -6 38 -30 2 -15 7 -27 12 -27 13 0 40 54 40 79 0 11 8 24 17 30 17 9 17 10 0 28 -9 11 -17 27 -17 35 0 9 -7 21 -15 28 -13 10 -15 9 -16 -11 0 -21 -2 -20 -12 8 -16 41 -27 52 -27 25 0 -21 -4 -22 -55 -19 -30 2 -57 5 -59 8 -2 2 -21 45 -41 94 -21 50 -45 98 -54 107 -15 16 -17 15 -34 -8z"/>
 <path d="M3090 2532 c0 -13 59 -78 60 -64 0 6 -9 21 -20 32 -11 11 -20 25 -20 30 0 6 -4 10 -10 10 -5 0 -10 -4 -10 -8z"/>
 <path d="M2544 2345 c-4 -8 -13 -15 -22 -15 -8 0 -13 -3 -9 -6 9 -9 78 16 72 27 -9 14 -35 11 -41 -6z"/>
 <path d="M1328 2233 c-20 -5 -23 -18 -8 -28 7 -4 7 -12 0 -25 -8 -15 -6 -17 10 -13 14 4 20 0 20 -11 0 -10 -9 -16 -22 -17 -21 -1 -21 -2 -3 -6 11 -3 24 -8 28 -13 12 -11 47 0 47 15 0 7 6 15 13 18 10 4 10 7 0 18 -11 11 -13 10 -13 -3 0 -21 -19 -33 -31 -21 -6 6 -4 14 5 22 8 7 12 20 8 29 -6 17 -28 43 -34 41 -2 -1 -11 -3 -20 -6z"/>
 <path d="M2463 2187 c-36 -24 -42 -53 -15 -74 34 -28 106 -54 130 -48 22 6 24 10 19 52 -9 80 -72 113 -134 70z"/>
 <path d="M3471 2201 c-11 -7 -10 -15 9 -41 12 -17 20 -34 16 -37 -10 -10 24 -63 40 -63 12 0 14 5 9 18 -4 9 -10 27 -12 40 -3 12 -9 25 -14 28 -5 3 -9 18 -9 35 0 29 -13 36 -39 20z"/>
 <path d="M3327 2095 c-23 -48 -21 -53 8 -25 14 13 25 32 25 42 0 29 -15 21 -33 -17z"/>
 <path d="M1646 2019 c-26 -31 -35 -69 -16 -69 14 0 12 -27 -2 -33 -18 -7 10 -27 38 -27 23 0 84 55 84 77 0 7 -8 28 -17 48 -21 45 -52 46 -87 4z"/>
 <path d="M2506 1972 c-6 -11 0 -91 8 -99 3 -3 6 6 6 20 0 22 5 27 25 27 31 0 32 10 2 38 -25 24 -33 26 -41 14z"/>
 <path d="M1942 1910 c14 -21 45 -36 55 -26 10 10 -29 46 -49 46 -16 0 -16 -3 -6 -20z"/>
 <path d="M3010 1776 c-6 -8 -18 -12 -26 -9 -15 6 -44 -13 -44 -29 0 -5 12 -8 28 -7 15 2 37 -4 49 -11 l22 -14 -33 -32 c-31 -29 -32 -33 -18 -48 15 -14 14 -17 -3 -34 -29 -27 -65 -71 -65 -78 0 -3 16 3 35 14 27 17 46 20 91 17 59 -5 84 -17 84 -43 0 -11 -8 -13 -34 -9 -26 4 -39 1 -52 -14 -16 -18 -16 -19 4 -19 11 0 24 -4 27 -10 3 -6 -1 -7 -9 -4 -17 6 -20 -4 -10 -30 3 -9 14 -16 24 -16 10 0 23 -7 30 -15 7 -9 19 -14 27 -11 7 3 34 -6 60 -19 25 -14 54 -25 64 -25 11 0 19 -6 19 -14 0 -23 17 -28 42 -14 23 13 53 47 53 60 0 3 3 10 8 14 15 15 6 41 -18 52 -27 12 -33 28 -12 35 6 2 2 3 -10 1 -18 -3 -21 1 -20 31 1 28 4 34 16 29 9 -4 27 -8 41 -11 l25 -4 -22 17 c-22 16 -31 44 -15 44 5 0 18 8 29 18 15 13 20 25 16 45 -6 30 -24 34 -69 17 -22 -9 -30 -7 -45 9 -10 11 -26 17 -37 14 -10 -2 -37 8 -60 23 -34 23 -42 33 -42 59 0 29 -2 31 -34 27 -23 -3 -36 -10 -39 -23 -6 -21 -32 -26 -42 -8 -4 6 1 17 11 24 18 14 17 14 -7 15 -15 0 -32 -6 -39 -14z m223 -161 c1 -5 -13 -11 -30 -13 -31 -3 -42 6 -26 22 10 10 53 3 56 -9z m47 -39 c0 -8 -14 -22 -32 -30 -39 -20 -38 -20 -38 8 0 24 13 32 53 35 9 0 17 -5 17 -13z m-96 -61 c11 -8 28 -15 38 -15 10 0 18 -5 18 -11 0 -7 -12 -8 -32 -4 -35 8 -58 22 -58 36 0 13 12 11 34 -6z"/>
 <path d="M3331 1701 c-19 -12 -5 -31 23 -31 31 0 53 25 30 34 -21 8 -36 7 -53 -3z"/>
 <path d="M1936 1631 c-7 -11 18 -33 27 -24 4 3 7 12 7 20 0 15 -26 18 -34 4z"/>
 <path d="M3083 1330 c9 -6 17 -17 17 -24 0 -8 7 -17 16 -20 22 -8 24 -8 24 7 0 22 -15 35 -45 42 -24 5 -27 4 -12 -5z"/>
 <path d="M2785 1181 c-22 -11 -70 -34 -107 -51 -102 -47 -98 -58 12 -37 3 1 55 -2 115 -6 112 -8 177 1 248 34 30 14 36 38 10 40 -62 4 -85 8 -96 17 -6 5 -41 12 -77 16 -53 5 -72 3 -105 -13z"/>
 <path d="M1434 1128 c-6 -26 -7 -53 -3 -60 14 -22 20 -2 17 53 l-3 54 -11 -47z"/>
 <path d="M2450 1053 c-52 -4 -178 -41 -186 -55 -9 -13 120 -3 166 13 19 6 42 17 50 24 8 7 24 15 35 18 l20 5 -20 -1 c-11 0 -40 -2 -65 -4z"/>
 </g>
<g id="layer3" fill="#fbfbfb" stroke="none">
 <path d="M0 2170 l0 -2170 2170 0 2170 0 0 2170 0 2170 -2170 0 -2170 0 0 -2170z m2420 1806 c576 -77 1091 -447 1354 -973 94 -187 153 -387 177 -593 14 -129 7 -402 -15 -520 -131 -721 -688 -1288 -1411 -1440 -130 -27 -408 -38 -555 -21 -692 79 -1286 567 -1498 1231 -77 241 -102 531 -68 790 67 502 355 958 790 1250 206 138 478 241 726 275 128 17 371 18 500 1z"/>
 <path d="M2063 3768 c-39 -7 -50 -13 -46 -24 6 -17 20 -18 26 -1 3 6 8 -3 12 -20 5 -23 13 -33 26 -33 12 0 19 -7 19 -19 0 -34 10 -49 31 -44 14 4 19 0 19 -16 0 -12 6 -21 15 -21 8 0 15 7 15 15 0 20 16 19 24 0 3 -9 -1 -18 -9 -21 -23 -9 -19 -37 4 -29 23 7 37 -10 15 -19 -19 -7 -9 -26 16 -26 11 0 20 -10 24 -25 6 -22 9 -24 27 -14 11 6 28 8 36 4 14 -5 14 -7 -3 -20 -10 -8 -17 -15 -14 -15 3 -1 13 -3 24 -5 10 -2 30 -14 44 -27 21 -19 24 -20 18 -4 -5 14 -3 17 10 12 8 -3 19 -6 23 -6 3 0 15 -16 25 -35 10 -19 28 -37 38 -41 13 -4 17 -11 13 -21 -3 -9 2 -24 11 -34 9 -10 13 -23 9 -28 -12 -20 42 -11 61 10 17 19 19 19 31 3 10 -14 8 -22 -12 -46 -47 -56 -29 -64 36 -15 49 38 106 61 114 47 7 -11 -5 -60 -14 -58 -3 1 -21 -1 -38 -5 -22 -4 -31 -11 -27 -20 3 -8 -2 -17 -10 -20 -8 -3 -22 -20 -31 -38 -21 -40 -9 -73 31 -83 40 -10 55 10 25 35 -30 24 -23 33 14 19 16 -6 34 -9 42 -6 16 7 17 48 1 64 -9 9 -7 13 5 18 9 3 17 14 17 25 0 10 9 23 20 29 16 8 20 8 20 -4 0 -8 -6 -21 -12 -28 -7 -7 -14 -32 -15 -56 -2 -24 -9 -50 -18 -58 -8 -9 -15 -20 -15 -26 0 -5 -10 -24 -22 -41 -17 -23 -19 -32 -9 -35 8 -3 21 -12 31 -22 9 -9 24 -19 33 -23 9 -3 17 -16 17 -27 0 -26 12 -26 28 0 13 22 34 28 26 7 -5 -13 23 -41 70 -72 14 -10 26 -24 26 -31 0 -8 6 -14 14 -14 7 0 16 -14 20 -32 7 -37 23 -58 43 -58 20 0 54 -43 41 -51 -6 -4 -2 -15 11 -28 11 -11 21 -27 21 -34 0 -18 78 -110 106 -125 13 -7 24 -19 24 -27 0 -19 49 -51 72 -47 20 4 25 -13 7 -23 -17 -11 21 -46 43 -39 16 5 17 3 7 -20 -15 -32 5 -64 28 -45 11 9 17 8 27 -7 8 -11 18 -15 23 -10 4 5 3 10 -3 13 -6 2 -9 17 -6 33 6 40 22 28 23 -18 0 -20 3 -31 6 -24 2 6 15 12 27 12 24 0 46 -34 46 -70 0 -10 4 -29 9 -42 5 -13 12 -31 15 -42 5 -15 9 -16 21 -6 8 7 15 10 15 7 0 -3 12 5 26 18 15 14 34 25 43 25 14 -1 14 -2 -1 -11 -10 -5 -18 -15 -18 -20 0 -6 -16 -26 -36 -45 -37 -34 -37 -34 -18 -56 10 -13 27 -29 37 -36 14 -11 15 -17 6 -28 -9 -11 -9 -14 1 -14 7 0 28 -16 45 -36 l32 -36 18 73 c9 41 19 82 22 92 4 15 1 18 -15 13 -16 -6 -19 -3 -15 12 9 36 -27 36 -58 0 -21 -24 -28 -28 -29 -16 0 10 7 23 16 30 8 7 22 20 31 29 14 15 18 14 43 -13 28 -28 28 -29 35 -8 14 45 14 179 -1 270 -20 120 -28 138 -59 150 -15 6 -24 14 -21 19 8 12 -21 34 -34 26 -5 -3 -10 -2 -10 4 0 5 -14 13 -31 16 -20 5 -27 10 -19 15 6 4 10 18 8 31 -2 20 -8 24 -35 23 -34 -2 -44 10 -18 20 17 6 21 36 5 36 -6 0 -13 -7 -16 -15 -9 -23 -23 -18 -34 11 -6 14 -19 28 -30 31 -12 3 -20 14 -20 27 0 12 -9 28 -20 36 -11 8 -20 20 -20 27 0 7 -4 13 -9 13 -6 0 -22 11 -37 25 -15 14 -31 25 -35 25 -5 0 -9 8 -9 17 0 13 -3 14 -12 5 -9 -9 -7 -21 11 -52 24 -43 21 -60 -10 -60 -21 0 -26 -15 -8 -25 5 -4 18 0 28 9 16 15 19 14 30 -10 12 -28 6 -48 -8 -25 -5 8 -17 11 -28 7 -27 -9 -47 17 -39 48 5 19 -1 34 -22 58 -52 61 -83 108 -73 108 6 0 11 7 11 15 0 8 -5 15 -10 15 -6 0 -20 12 -33 27 -12 15 -51 58 -87 96 -36 38 -70 77 -75 88 -10 18 -12 18 -28 2 -17 -17 -17 -17 -15 7 3 23 0 25 -34 22 -31 -2 -37 0 -32 13 3 8 1 15 -5 15 -6 0 -11 6 -11 13 0 23 -33 54 -65 59 -23 5 -34 1 -51 -19 l-22 -26 -11 22 c-10 19 -9 21 11 21 19 0 20 2 8 10 -13 9 -13 11 -1 19 12 7 10 15 -10 39 -13 17 -33 31 -43 31 -11 1 -16 4 -13 8 8 7 -21 43 -34 43 -4 0 -23 14 -41 30 -18 17 -27 30 -20 30 6 0 12 6 12 14 0 13 -19 26 -50 32 -8 2 -16 8 -18 13 -2 6 -17 11 -33 11 -29 0 -33 7 -29 45 1 11 -1 17 -6 13 -4 -4 -16 2 -27 15 -15 16 -19 18 -14 5 4 -10 4 -18 1 -18 -10 0 -59 35 -67 47 -5 8 -13 11 -18 8 -5 -4 -21 -8 -35 -11 -21 -4 -24 -2 -16 13 32 62 -49 88 -195 61z m604 -487 c13 -21 8 -31 -18 -31 -21 0 -31 24 -16 39 15 15 20 14 34 -8z"/>
 <path d="M1843 3720 c-34 -10 -79 -32 -100 -48 -21 -16 -49 -33 -63 -37 -81 -21 -81 -22 -74 -88 5 -44 4 -58 -5 -53 -6 4 -11 12 -11 18 0 23 -42 98 -51 92 -6 -3 -4 -15 5 -29 11 -17 12 -25 3 -34 -14 -14 -14 -451 0 -611 7 -89 10 -96 34 -107 38 -18 46 -32 54 -89 6 -47 5 -51 -20 -62 -14 -7 -37 -12 -50 -12 -24 0 -27 4 -29 43 -1 23 -79 67 -118 67 -50 0 -55 7 -50 60 l4 49 -53 25 c-30 13 -83 34 -119 45 -51 16 -60 22 -43 27 13 4 20 11 16 20 -3 9 2 14 18 15 13 0 32 2 42 4 11 2 17 -3 17 -14 0 -14 -6 -17 -32 -13 -30 5 -32 3 -19 -12 8 -9 28 -16 48 -16 29 0 34 3 29 17 -11 27 15 114 33 112 35 -3 41 2 41 32 0 36 -19 35 -37 -2 -7 -13 -13 -20 -13 -15 0 5 -9 -1 -20 -14 -11 -13 -20 -27 -20 -32 0 -4 -4 -8 -9 -8 -6 0 -9 12 -8 28 2 23 -2 27 -28 30 -37 4 -59 22 -27 22 23 0 29 19 12 36 -7 7 1 17 25 29 27 15 37 17 47 7 18 -18 26 -14 21 12 -5 23 17 50 24 29 2 -6 13 -9 23 -6 19 5 25 19 22 53 -1 8 3 38 7 65 6 31 6 54 0 62 -7 8 -4 15 8 22 10 6 12 11 6 11 -18 0 -16 40 2 40 9 0 12 6 9 15 -4 8 -11 15 -16 15 -16 0 -198 -122 -266 -179 -55 -46 -61 -55 -56 -79 10 -39 14 -44 30 -31 11 9 16 6 25 -15 13 -27 35 -37 25 -11 -10 26 18 16 31 -10 9 -20 9 -31 -3 -53 -8 -15 -14 -21 -14 -14 0 6 -5 12 -11 12 -7 0 -8 -14 -4 -41 l7 -41 -21 21 c-12 12 -21 27 -21 35 0 7 -10 17 -22 20 -22 6 -22 7 -5 20 30 23 18 65 -13 46 -19 -12 -21 -120 -3 -120 7 0 10 -7 6 -16 -3 -8 -12 -13 -19 -10 -7 3 -16 1 -19 -4 -4 -6 1 -10 9 -10 9 0 16 -4 16 -10 0 -18 40 -32 56 -19 11 9 14 7 14 -11 0 -20 -3 -21 -42 -15 -23 4 -50 12 -60 19 -15 9 -21 6 -35 -14 -10 -14 -19 -36 -21 -50 -1 -14 -8 -36 -14 -48 -11 -20 -10 -25 6 -34 14 -8 16 -17 11 -44 -5 -27 -3 -34 10 -34 22 0 18 -21 -5 -27 -11 -3 -20 -11 -20 -19 0 -23 -23 -64 -36 -64 -6 0 -15 8 -18 17 -5 12 -9 14 -18 5 -16 -16 -28 -15 -28 2 0 23 -31 29 -37 6 -6 -22 -24 -25 -54 -10 -29 16 -24 -6 5 -26 31 -20 61 -93 51 -126 -4 -12 -15 -41 -25 -63 -9 -22 -20 -48 -24 -59 -5 -16 -9 -16 -22 -5 -15 12 -16 10 -9 -21 4 -19 13 -42 21 -51 8 -8 14 -24 14 -35 0 -31 22 -51 62 -57 48 -7 55 2 22 30 -16 13 -24 28 -21 38 4 9 1 15 -7 15 -9 0 -14 12 -14 35 0 19 4 35 9 35 9 0 49 36 49 45 0 11 35 45 46 45 6 0 19 12 29 26 14 22 22 25 47 20 38 -7 84 -44 96 -76 6 -14 13 -45 16 -69 5 -33 4 -42 -6 -38 -9 3 -14 -9 -16 -39 -3 -46 10 -58 28 -24 6 11 16 17 25 14 9 -4 22 -1 30 6 12 10 18 8 33 -10 17 -21 19 -21 34 -6 9 9 24 16 32 16 20 0 21 -29 1 -36 -10 -4 -13 -13 -10 -24 11 -33 -47 -51 -77 -24 -10 10 -18 13 -18 8 0 -17 15 -32 35 -36 18 -4 17 -6 -7 -16 -44 -18 -36 -47 19 -74 32 -16 66 -14 89 3 6 5 10 33 9 64 -1 30 1 55 4 55 3 0 12 4 20 9 11 7 10 13 -4 34 -15 24 -15 26 2 31 21 7 30 81 12 102 -9 11 -7 15 7 20 50 17 105 48 114 63 12 23 -13 61 -40 61 -10 0 -32 -8 -48 -17 -27 -16 -31 -16 -66 1 -44 21 -54 40 -32 61 12 12 35 15 108 13 69 -1 101 2 125 14 21 11 35 13 39 6 4 -6 10 -63 13 -127 4 -64 13 -126 19 -138 10 -17 10 -27 1 -41 -9 -14 -9 -24 -1 -38 10 -17 11 -17 12 -1 0 9 5 17 11 17 6 0 9 -7 5 -15 -3 -8 -2 -15 2 -16 40 -4 60 -3 55 3 -7 12 8 71 15 63 4 -4 7 -30 7 -58 0 -48 2 -52 23 -50 43 5 12 -41 -40 -59 -15 -6 -28 -14 -28 -20 0 -5 -11 -24 -25 -42 -26 -34 -34 -97 -16 -125 8 -12 11 -9 16 12 9 35 57 69 92 65 22 -2 29 -9 33 -32 3 -16 11 -31 18 -34 11 -3 12 0 3 16 -13 25 -14 42 -2 42 13 0 20 -52 10 -72 -6 -12 -6 -18 1 -18 5 0 10 -9 10 -20 0 -22 -16 -27 -23 -7 -3 8 -14 3 -34 -16 -30 -28 -86 -39 -113 -22 -11 7 -12 -2 -6 -41 9 -60 17 -248 17 -404 0 -63 5 -129 11 -146 9 -26 15 -30 39 -26 38 6 51 -23 20 -44 -11 -8 -21 -22 -21 -30 0 -16 26 -19 35 -4 3 5 11 10 17 10 7 0 7 -4 0 -12 -14 -18 -3 -78 14 -78 14 0 39 -46 35 -64 -1 -4 3 -14 9 -21 8 -10 8 -19 0 -35 -9 -17 -14 -19 -26 -9 -19 15 -28 5 -30 -32 -2 -26 1 -29 20 -23 27 8 76 53 73 68 -1 6 5 11 13 11 11 0 14 -8 12 -28 -2 -18 1 -26 7 -22 6 3 11 2 11 -2 0 -12 -54 -43 -74 -43 -9 0 -16 -7 -16 -15 0 -8 -9 -24 -20 -35 -25 -25 -27 -60 -3 -60 9 0 59 43 111 95 58 58 103 95 116 95 201 5 334 21 373 46 12 8 42 14 66 14 49 0 147 23 186 45 14 7 51 25 81 38 30 14 73 33 95 43 29 14 59 18 109 17 68 -3 68 -3 64 22 -3 14 1 30 8 36 8 6 14 18 14 26 0 18 20 12 34 -10 8 -13 8 -20 -3 -26 -7 -5 -10 -14 -6 -21 4 -7 -1 -13 -14 -17 -26 -7 -27 -18 -3 -28 30 -12 140 -16 147 -5 3 5 0 10 -8 10 -8 0 -20 7 -28 16 -7 8 -21 13 -31 11 -21 -6 -35 10 -21 24 11 11 78 -14 106 -39 9 -8 20 -13 23 -9 3 3 -4 10 -15 17 -30 15 -26 31 7 26 15 -2 30 -5 34 -5 4 -1 7 -11 5 -23 -1 -17 4 -24 21 -26 25 -4 30 15 7 24 -8 4 -15 15 -15 25 0 17 7 18 75 15 91 -5 121 8 160 66 34 51 85 137 85 143 0 13 -34 3 -46 -12 -12 -17 -13 -17 -14 -1 0 22 -37 33 -57 17 -13 -12 -12 -16 12 -34 26 -22 26 -22 3 -21 -16 1 -23 -4 -22 -17 2 -20 -48 -77 -83 -95 -36 -20 -58 -14 -104 28 -46 41 -65 50 -56 26 4 -11 1 -13 -10 -9 -15 6 -14 -5 4 -54 6 -16 -7 -16 -41 -3 -14 5 -26 16 -26 25 0 8 -4 15 -10 15 -5 0 -10 -9 -10 -20 0 -26 -20 -26 -27 0 -3 11 -9 20 -14 20 -5 0 -9 7 -9 15 0 8 -11 22 -24 30 -29 19 -25 43 14 85 36 38 46 73 19 65 -11 -4 -19 -2 -19 4 0 16 -42 13 -64 -4 -24 -18 -36 -19 -36 -2 0 14 67 87 81 87 17 0 9 19 -11 25 -23 7 -28 48 -6 43 8 -2 15 2 16 7 1 6 7 16 12 23 8 9 8 16 0 24 -13 13 -35 0 -28 -17 11 -30 -9 -21 -40 16 -40 48 -42 59 -11 59 l22 0 -24 19 c-27 21 -21 42 9 34 15 -4 22 2 30 21 13 34 37 44 54 21 9 -13 20 -16 38 -12 14 4 28 4 31 1 9 -10 -4 -34 -19 -34 -8 0 -14 -4 -14 -10 0 -17 38 -30 69 -24 38 8 62 -10 59 -44 -2 -20 3 -27 29 -36 18 -6 32 -15 30 -21 -1 -5 8 -11 21 -13 15 -2 22 2 22 12 0 9 -7 16 -15 16 -8 0 -15 4 -15 9 0 5 7 11 15 15 9 3 15 18 15 40 0 19 5 38 10 41 6 3 10 15 10 26 0 11 7 19 18 19 10 0 4 7 -15 16 -30 15 -32 18 -18 37 17 24 20 78 5 93 -6 6 0 31 20 72 33 70 27 87 -13 36 -16 -19 -31 -34 -35 -34 -4 0 -6 17 -4 39 l4 38 -44 -2 c-67 -3 -93 -14 -106 -43 -6 -15 -21 -33 -32 -40 -17 -11 -21 -10 -27 5 -3 10 -15 25 -26 34 -18 15 -18 18 -4 50 17 39 21 127 7 144 -5 6 -19 48 -31 94 -21 78 -21 85 -5 111 18 31 21 66 6 75 -5 3 -7 12 -4 19 9 24 -377 405 -412 406 -5 1 -27 9 -49 19 -24 12 -51 17 -70 14 -39 -6 -105 20 -105 43 0 9 -14 32 -31 52 -28 32 -30 39 -24 81 4 25 8 47 10 49 2 2 13 -2 25 -8 58 -31 24 24 -74 118 -57 56 -67 62 -86 52 -29 -16 -91 -9 -103 12 -9 13 -6 21 13 36 17 14 21 24 15 38 -8 18 -9 18 -12 -3 -5 -24 -27 -31 -38 -13 -4 6 -10 24 -15 40 -6 22 -5 28 5 24 30 -12 21 15 -17 52 -26 25 -42 34 -45 27 -7 -20 -25 -15 -19 5 4 10 -6 31 -27 54 l-32 36 -62 -18z m-166 -201 c6 -6 9 -18 6 -26 -3 -8 4 -28 17 -45 16 -22 21 -39 17 -63 -4 -23 -1 -38 9 -46 20 -17 17 -35 -8 -51 -34 -21 -56 -11 -79 34 -11 22 -34 53 -50 69 -16 15 -29 31 -29 35 0 4 12 18 26 31 25 23 27 23 45 7 10 -9 19 -25 19 -34 0 -19 27 -46 37 -37 3 4 -1 17 -9 29 -18 28 -34 108 -21 108 5 0 14 -5 20 -11z m470 -211 c52 -24 77 -69 87 -157 3 -24 12 -54 20 -66 9 -13 17 -39 19 -57 1 -18 24 -76 50 -130 26 -53 47 -107 47 -121 0 -13 9 -32 20 -42 11 -10 20 -31 20 -47 0 -15 5 -28 11 -28 7 0 9 -10 5 -27 -4 -16 -7 -34 -8 -41 -1 -7 -8 -10 -16 -7 -9 3 -18 2 -21 -2 -3 -4 -22 -16 -42 -26 -31 -16 -41 -17 -60 -7 l-23 13 28 22 c22 17 27 29 24 55 -4 42 -25 51 -30 13 -2 -16 -8 -27 -16 -25 -9 1 -12 -9 -10 -33 1 -25 -3 -39 -17 -49 -18 -13 -19 -18 -8 -47 8 -21 9 -37 3 -43 -13 -13 7 -36 32 -36 11 0 18 -5 15 -12 -2 -7 -17 -12 -33 -11 -22 2 -25 0 -14 -7 12 -8 13 -12 2 -19 -11 -6 -8 -16 12 -45 14 -21 28 -46 31 -56 3 -10 14 -20 24 -23 11 -2 21 -17 24 -36 6 -27 10 -31 28 -26 16 5 20 3 16 -6 -2 -8 -9 -13 -14 -12 -6 1 -8 -9 -5 -22 3 -16 11 -25 22 -25 10 0 25 -3 34 -6 12 -5 16 1 16 24 0 23 7 34 33 49 17 11 42 22 54 25 30 8 81 -26 89 -59 4 -15 11 -33 16 -40 12 -15 -6 -50 -30 -57 -10 -4 -38 1 -62 9 -24 8 -45 13 -47 11 -10 -10 23 -79 42 -87 11 -5 31 -17 44 -26 l24 -18 -6 33 c-7 34 7 45 16 12 3 -11 12 -20 21 -20 23 0 20 -27 -4 -33 -17 -4 -19 -11 -14 -31 7 -29 2 -31 -26 -14 -25 16 -37 3 -19 -19 18 -22 19 -77 2 -79 -7 -1 -15 -2 -17 -3 -2 0 0 -19 4 -41 5 -30 4 -43 -7 -52 -8 -7 -19 -23 -24 -36 -8 -20 -12 -22 -24 -12 -17 14 -35 5 -35 -16 0 -11 6 -14 23 -9 21 7 22 7 3 -11 -12 -12 -20 -15 -23 -8 -4 13 -62 -3 -74 -20 -4 -4 -16 -5 -27 -2 -11 4 -23 2 -27 -4 -9 -15 -41 -12 -55 5 -17 21 -30 19 -30 -6 0 -16 -4 -19 -19 -14 -15 4 -21 0 -24 -17 -3 -17 -5 -14 -6 10 -1 23 -5 31 -13 26 -7 -4 -31 -9 -54 -10 -34 -1 -41 2 -37 16 2 9 -2 22 -11 29 -13 11 -15 10 -11 -9 3 -17 0 -20 -15 -15 -10 3 -21 1 -25 -5 -11 -18 -27 -11 -20 10 3 11 2 20 -2 20 -16 0 -33 -24 -33 -46 0 -13 -4 -26 -10 -29 -5 -3 -10 3 -10 14 0 24 -10 27 -28 9 -9 -9 -12 -9 -12 1 0 7 -6 11 -12 8 -22 -7 -66 22 -70 45 -2 13 -9 22 -16 20 -6 -1 -12 3 -12 9 0 7 -10 9 -25 5 -14 -4 -25 -2 -25 4 0 5 7 10 15 10 9 0 18 7 21 15 4 8 15 15 26 15 18 0 18 1 1 24 -12 15 -20 20 -25 13 -5 -8 -15 -4 -30 10 -21 20 -28 21 -67 12 -24 -5 -46 -7 -49 -4 -7 7 3 16 22 19 9 1 22 10 29 20 14 19 40 23 74 12 19 -6 23 -3 28 21 3 15 10 48 16 73 6 25 12 53 14 63 2 9 6 20 8 25 3 4 0 34 -5 67 -5 33 -11 110 -13 170 -2 61 -4 113 -4 118 -1 4 -8 7 -16 7 -9 0 -12 6 -9 15 4 10 0 15 -14 15 -11 0 -22 -8 -25 -20 -3 -11 -12 -20 -21 -20 -10 0 -13 6 -10 15 4 8 11 15 16 15 6 0 5 7 -2 16 -8 8 -9 14 -4 13 5 -1 19 -1 32 0 19 1 23 6 20 29 -2 15 -10 32 -18 39 -13 10 -13 14 4 26 13 10 15 16 8 21 -15 9 -32 -1 -32 -20 0 -16 -9 -18 -29 -5 -10 6 -10 10 -1 16 8 5 10 21 6 49 -5 29 -2 48 8 61 9 13 11 24 5 31 -11 13 7 100 22 110 5 3 9 17 9 31 0 15 5 41 12 59 9 26 8 38 -5 67 -10 19 -17 44 -17 56 0 28 -14 27 -34 -4 -9 -14 -20 -25 -24 -25 -4 0 -18 20 -30 44 -18 32 -21 49 -14 62 5 10 6 32 1 53 -5 20 -6 53 -2 73 8 56 59 99 78 67 9 -13 64 -2 83 17 25 25 38 17 34 -21 -2 -19 -8 -38 -13 -41 -5 -3 -9 -16 -9 -29 0 -13 -4 -26 -9 -29 -12 -8 -20 -56 -10 -56 5 0 13 9 19 20 12 23 32 18 23 -5 -3 -9 1 -15 10 -15 23 0 26 -22 5 -44 -10 -11 -23 -38 -29 -59 -9 -32 -8 -43 5 -55 13 -14 17 -12 33 15 22 40 53 60 63 42 6 -9 17 -6 44 10 21 13 36 18 36 11 0 -6 5 -8 10 -5 6 4 7 11 4 17 -5 8 4 9 29 5 21 -3 37 -2 37 4 0 17 29 9 35 -10 9 -29 34 -46 47 -33 7 7 5 25 -8 61 -14 39 -15 54 -6 63 9 9 13 7 18 -5 8 -21 34 -23 34 -3 0 8 3 21 6 29 3 9 -15 39 -44 73 -62 76 -84 109 -75 117 9 10 18 9 50 -5z m-61 -246 c-19 -19 -42 -3 -32 23 5 13 10 14 27 4 20 -10 20 -12 5 -27z m-843 -452 c17 0 16 -1 -2 -21 -21 -23 -35 -20 -52 13 -10 19 -9 20 12 15 13 -4 32 -7 42 -7z m1291 -186 c4 -9 4 -25 0 -36 -5 -17 -2 -18 35 -12 36 6 42 4 51 -17 5 -13 16 -32 22 -42 11 -14 10 -19 0 -26 -26 -16 31 -21 62 -6 43 22 64 19 33 -5 -14 -11 -32 -20 -41 -20 -10 0 -16 -8 -16 -21 0 -19 4 -21 30 -15 29 5 30 4 30 -29 0 -32 -2 -35 -31 -35 -34 0 -109 62 -109 90 0 21 -64 49 -129 57 -33 4 -51 10 -51 19 0 8 7 14 15 14 8 0 15 9 15 20 0 16 7 20 35 20 33 0 48 14 23 22 -13 5 -4 38 11 38 5 0 12 -7 15 -16z m166 -439 c0 -9 -9 -15 -25 -15 -31 0 -33 17 -2 23 12 2 23 5 25 6 1 0 2 -6 2 -14z m-874 -388 c18 -10 18 -27 0 -27 -15 0 -26 22 -25 48 0 14 2 14 6 2 3 -8 12 -19 19 -23z m754 22 c0 -7 7 -17 17 -24 19 -14 9 -37 -14 -28 -14 5 -15 0 -9 -43 9 -60 22 -76 41 -50 8 10 16 24 18 30 3 8 9 8 23 0 14 -8 18 -20 16 -43 -3 -28 -1 -31 22 -31 30 0 33 7 9 27 -17 13 -16 14 7 8 14 -4 34 -8 45 -9 12 -2 21 -11 23 -24 2 -12 8 -22 13 -22 5 0 9 -8 9 -17 0 -15 -4 -14 -19 6 -17 23 -21 23 -50 11 -17 -7 -31 -20 -31 -29 0 -9 -4 -23 -9 -30 -8 -12 -12 -9 -22 13 -11 23 -10 29 1 36 25 15 1 24 -26 10 -14 -8 -38 -13 -54 -12 -21 2 -30 -3 -35 -18 -9 -28 -27 -20 -37 15 -9 34 -4 42 16 26 9 -7 16 -8 20 -2 9 14 5 103 -6 124 -6 12 -4 19 7 23 12 5 14 14 10 35 -4 18 -2 29 4 29 6 0 11 -5 11 -11z m131 -21 c1 -7 1 -16 0 -20 -2 -12 14 -9 28 5 10 10 11 8 5 -6 -4 -12 -13 -17 -25 -14 -11 3 -22 1 -25 -4 -6 -11 -34 -12 -34 -1 0 11 33 52 43 52 4 0 8 -6 8 -12z m-181 -78 c0 -7 -93 -31 -98 -25 -9 9 12 25 33 25 12 0 26 7 29 16 5 13 9 14 21 4 8 -7 15 -16 15 -20z m-640 -20 c0 -9 -42 -22 -48 -15 -3 2 -2 11 1 19 6 15 47 11 47 -4z m471 -44 c6 3 8 18 5 33 l-6 26 25 -30 c25 -30 34 -85 15 -85 -5 0 -10 4 -10 10 0 5 -15 16 -34 24 -22 9 -35 22 -38 40 -8 38 5 42 20 6 7 -17 17 -28 23 -24z m438 38 c7 -6 -10 -22 -29 -27 -16 -4 -20 0 -20 20 0 21 3 23 23 17 12 -3 24 -8 26 -10z m-318 -78 c-7 -44 -28 -59 -33 -24 -3 19 29 75 38 65 1 -1 -1 -20 -5 -41z m-440 -30 c-18 -19 -30 -39 -27 -44 3 -6 2 -13 -3 -16 -5 -3 -12 2 -15 11 -5 11 -10 13 -17 6 -8 -8 -2 -20 20 -41 32 -30 38 -46 21 -57 -15 -9 -60 6 -60 21 0 8 -7 14 -16 14 -9 0 -27 12 -40 26 -13 14 -29 22 -34 19 -21 -13 -28 7 -9 26 21 21 44 17 35 -7 -3 -8 1 -14 9 -14 8 0 15 6 15 14 0 21 19 30 34 17 10 -9 15 -7 19 8 3 15 59 44 96 50 3 1 -10 -14 -28 -33z m80 -26 c-4 -22 -12 -36 -23 -38 -12 -2 -15 3 -11 18 4 16 1 20 -21 20 -14 0 -26 4 -26 9 0 18 19 22 42 10 18 -10 24 -9 32 4 14 22 15 18 7 -23z m274 17 c0 -8 4 -19 8 -23 4 -4 7 -2 7 4 0 19 38 14 48 -5 15 -29 8 -67 -16 -97 -27 -34 -35 -29 -39 25 -2 22 -10 53 -18 69 -18 35 -19 53 -2 47 6 -2 12 -11 12 -20z m358 -34 c-3 -7 -9 -13 -13 -13 -17 0 -20 19 -8 40 12 18 13 18 19 2 3 -9 4 -23 2 -29z m-96 11 c10 -21 9 -29 -4 -43 -12 -15 -19 -16 -39 -7 -31 14 -31 26 1 26 30 0 33 20 5 27 -27 7 -25 23 3 23 14 0 26 -9 34 -26z m-390 -24 c20 -22 36 -30 58 -29 47 2 57 0 50 -11 -4 -6 -11 -7 -17 -4 -6 4 -17 -1 -25 -11 -7 -11 -13 -13 -13 -7 0 7 -8 12 -18 12 -22 0 -65 38 -57 51 4 5 -3 9 -14 9 -12 0 -21 5 -21 10 0 20 29 9 57 -20z m-95 -25 c2 -12 11 -20 23 -20 16 0 19 -6 17 -25 -5 -30 -11 -38 -20 -24 -4 6 -15 13 -24 17 -10 3 -18 13 -18 22 0 8 -7 15 -15 15 -19 0 -19 6 3 29 19 20 28 16 34 -14z m368 -12 c0 -33 -24 -25 -28 10 -3 21 0 26 12 21 9 -3 16 -17 16 -31z m52 -17 c13 -10 16 -22 11 -49 -3 -20 -9 -34 -14 -31 -5 2 -6 18 -2 34 4 23 2 30 -11 30 -9 0 -16 7 -16 15 0 18 9 19 32 1z"/>
 <path d="M2165 2883 c-3 -10 -3 -57 1 -104 5 -68 3 -94 -9 -117 -17 -36 -14 -42 24 -42 18 0 29 -6 31 -17 3 -14 8 -9 21 16 11 23 14 39 7 50 -5 10 -7 26 -4 37 3 10 -6 52 -20 92 -13 41 -22 80 -19 88 3 8 -1 14 -10 14 -8 0 -18 -8 -22 -17z"/>
 <path d="M2220 2858 c0 -26 25 -78 37 -78 19 0 16 18 -8 56 -22 36 -29 41 -29 22z"/>
 <path d="M1825 2828 c-23 -65 -32 -182 -16 -206 4 -8 19 -12 32 -10 23 3 24 6 21 78 -1 41 -5 92 -8 113 -6 36 -20 49 -29 25z"/>
 <path d="M2260 2760 c0 -6 8 -25 17 -43 20 -37 30 -17 14 26 -10 26 -31 37 -31 17z"/>
 <path d="M2064 2696 c-7 -19 12 -46 33 -46 21 0 13 54 -10 58 -9 2 -20 -4 -23 -12z"/>
 <path d="M1971 2690 c-19 -5 -40 -6 -46 -4 -15 6 -26 -29 -14 -47 7 -11 11 -11 21 2 7 9 28 22 46 29 17 7 32 16 32 21 0 5 -1 9 -2 8 -2 -1 -18 -5 -37 -9z"/>
 <path d="M2060 2609 c0 -12 -7 -27 -16 -34 -15 -10 -13 -15 19 -39 26 -20 45 -26 69 -24 30 3 33 6 36 40 4 41 -16 61 -75 73 -29 6 -33 4 -33 -16z"/>
 <path d="M1844 2578 c-54 -59 -70 -118 -31 -118 32 0 98 70 103 109 2 17 0 31 -5 31 -5 0 -15 2 -23 5 -7 3 -27 -9 -44 -27z"/>
 <path d="M1810 1816 c0 -33 18 -43 35 -20 9 13 10 23 3 31 -17 21 -38 15 -38 -11z"/>
 <path d="M1912 1761 c2 -19 8 -36 15 -38 9 -3 10 4 3 28 -13 45 -22 50 -18 10z"/>
 <path d="M2378 1694 c-4 -5 0 -24 8 -43 10 -24 18 -31 30 -27 9 3 18 6 20 6 13 0 1 20 -17 25 -11 4 -24 16 -28 28 -4 11 -10 16 -13 11z"/>
 <path d="M1935 1340 c-6 -9 11 -50 20 -50 3 0 5 14 5 30 0 29 -13 40 -25 20z"/>
 <path d="M2470 3643 c0 -8 -7 -16 -15 -19 -8 -4 -12 -10 -9 -15 7 -12 74 -12 74 0 0 5 3 16 6 24 4 10 -4 16 -25 19 -22 3 -31 0 -31 -9z"/>
 <path d="M2785 3601 c21 -23 45 -41 52 -41 8 0 17 -8 20 -17 8 -20 21 -38 43 -58 54 -51 195 -175 224 -198 l35 -28 14 33 c23 52 27 67 20 84 -11 30 -230 166 -369 229 l-79 36 40 -40z"/>
 <path d="M2398 3350 c3 -25 7 -28 18 -19 20 17 18 49 -4 49 -15 0 -18 -6 -14 -30z"/>
 <path d="M3305 3245 c11 -87 43 -179 86 -245 42 -66 161 -195 212 -232 l27 -19 -35 78 c-64 140 -188 341 -271 438 l-25 30 6 -50z"/>
 <path d="M2587 3145 c-23 -28 -26 -38 -17 -55 13 -24 30 -26 30 -4 0 9 11 29 25 46 14 16 25 34 25 39 0 21 -37 5 -63 -26z"/>
 <path d="M885 3050 c-4 -13 -14 -30 -21 -37 -7 -8 -11 -20 -8 -27 3 -8 -2 -16 -13 -19 -17 -4 -17 -5 1 -6 13 -1 17 -6 13 -21 -8 -33 17 -23 53 20 18 22 40 40 48 40 7 0 12 6 9 13 -2 6 -17 12 -32 12 -23 0 -30 6 -35 25 l-6 25 -9 -25z"/>
 <path d="M3237 2894 c-14 -14 -7 -35 11 -32 9 2 17 10 17 17 0 16 -18 25 -28 15z"/>
 <path d="M3450 2751 c0 -11 29 -35 35 -29 10 9 -7 38 -21 38 -8 0 -14 -4 -14 -9z"/>
 <path d="M706 2515 c-20 -30 -20 -35 -1 -35 8 0 15 -7 15 -17 0 -30 14 -2 17 32 2 44 -10 52 -31 20z"/>
 <path d="M1072 2420 c0 -48 1 -52 10 -27 6 18 6 36 0 55 -9 24 -10 20 -10 -28z"/>
 <path d="M626 2394 c-4 -9 -12 -58 -18 -109 -10 -79 -9 -108 6 -199 30 -189 102 -410 188 -580 l35 -69 37 79 c74 156 89 215 90 354 1 152 -15 198 -87 249 -25 18 -53 49 -63 69 -32 63 -158 222 -176 222 -3 0 -9 -7 -12 -16z"/>
 <path d="M991 2256 c-19 -20 -28 -23 -48 -15 -41 15 -49 10 -23 -16 14 -14 34 -34 45 -46 21 -22 71 -23 69 -1 -1 6 -2 32 -2 57 -2 51 -9 55 -41 21z"/>
 <path d="M1120 2053 c0 -16 5 -34 12 -41 8 -8 8 -15 -2 -26 -15 -20 -30 -12 -30 17 0 14 -3 18 -10 11 -8 -8 -7 -20 2 -40 6 -16 13 -33 13 -39 1 -5 5 -23 10 -39 5 -18 4 -31 -4 -35 -6 -4 -13 -30 -15 -57 -2 -27 -2 -39 1 -26 11 57 18 10 17 -118 -1 -78 2 -137 7 -134 5 3 9 22 10 42 l1 37 10 -35 c5 -19 17 -43 25 -53 9 -9 13 -20 8 -25 -4 -4 -10 -1 -12 6 -14 39 -31 -7 -40 -112 -3 -42 -2 -56 6 -51 13 8 10 -52 -3 -73 -4 -7 -3 -19 3 -26 8 -9 8 -29 2 -62 -8 -43 -7 -52 10 -70 11 -12 19 -28 17 -35 -2 -10 9 -15 35 -17 29 -3 37 -7 37 -22 0 -23 44 -55 61 -44 24 15 68 12 73 -5 3 -9 4 -3 3 13 -1 21 3 30 16 32 9 1 17 -2 17 -7 0 -5 5 -9 10 -9 17 0 11 16 -16 43 l-25 25 22 20 c11 11 18 26 14 32 -4 6 1 21 12 32 13 15 15 22 6 25 -7 3 -13 11 -13 19 0 9 -4 12 -10 9 -5 -3 -7 0 -4 8 3 8 1 18 -4 21 -5 3 -7 18 -4 33 5 24 6 25 12 8 4 -11 11 -20 16 -20 5 0 14 -3 20 -7 12 -8 12 55 0 87 -4 11 -12 32 -18 47 -8 23 -14 26 -38 22 -23 -5 -28 -2 -34 20 -4 17 -11 23 -21 20 -18 -7 -19 -3 -3 32 11 23 10 28 -11 45 -19 16 -26 17 -39 7 -12 -10 -16 -11 -19 0 -3 6 -9 10 -14 7 -5 -3 -8 15 -7 40 2 35 6 45 19 45 9 0 19 9 22 20 3 11 9 19 14 18 12 -3 53 25 53 38 0 6 9 19 21 30 20 18 21 18 34 0 8 -10 11 -24 8 -32 -3 -9 2 -14 16 -14 24 0 28 18 6 26 -9 4 -15 19 -15 39 0 18 -6 36 -12 38 -8 3 -5 6 6 6 14 1 17 6 12 24 -3 12 -6 28 -6 35 0 7 -11 17 -25 22 -26 10 -31 25 -16 49 5 8 6 21 1 30 -4 9 -14 29 -21 45 -8 16 -20 31 -29 34 -8 3 -22 11 -32 19 -11 10 -18 11 -23 3 -5 -8 -13 -6 -26 6 -22 20 -30 15 -33 -20 -1 -26 -7 -32 -19 -19 -4 3 -2 12 4 20 12 13 2 18 -29 14 -8 -1 -20 3 -28 10 -12 9 -14 6 -14 -18z m215 -99 c13 -5 14 -8 3 -15 -20 -13 -38 -11 -38 6 0 16 9 19 35 9z"/>
 <path d="M3534 1975 c-4 -8 -12 -15 -19 -15 -13 0 -27 -35 -17 -44 10 -11 42 -6 42 5 0 7 7 17 17 24 9 7 14 19 10 29 -8 20 -26 21 -33 1z"/>
 <path d="M3610 1902 c0 -5 -15 -7 -32 -5 l-33 3 28 -11 c24 -9 32 -8 45 5 11 10 12 16 4 16 -7 0 -12 -4 -12 -8z"/>
 <path d="M3597 1833 c-4 -3 -7 -15 -7 -26 0 -16 3 -17 15 -7 12 10 15 10 15 -1 0 -10 3 -10 11 -2 9 9 8 16 -4 27 -17 18 -21 19 -30 9z"/>
 <path d="M3379 1740 c-19 -12 0 -30 32 -30 16 0 29 -4 29 -10 0 -5 -8 -10 -18 -10 -26 0 -34 -11 -18 -24 17 -14 28 -57 18 -72 -4 -6 -17 -16 -29 -23 -28 -15 -30 -31 -3 -31 13 0 20 -7 20 -19 0 -30 56 -34 75 -5 8 13 15 28 15 34 0 5 7 10 15 10 26 0 16 18 -17 30 -29 10 -31 12 -15 21 13 8 15 14 7 23 -7 10 -6 17 5 26 21 17 19 40 -3 40 -11 0 -27 9 -36 19 -19 21 -59 32 -77 21z"/>
 <path d="M1352 1663 c-7 -13 -7 -25 1 -38 10 -18 11 -18 19 10 9 35 -6 56 -20 28z"/>
 <path d="M1394 1644 c3 -9 6 -19 6 -23 0 -7 44 -31 57 -31 3 0 -6 9 -21 21 -14 11 -26 27 -26 35 0 8 -5 14 -11 14 -6 0 -8 -7 -5 -16z"/>
 <path d="M1274 1598 c3 -13 6 -27 6 -32 0 -6 9 0 20 12 27 29 25 42 -6 42 -22 0 -25 -3 -20 -22z"/>
 <path d="M3220 1564 c0 -11 5 -14 16 -10 9 3 20 6 25 6 5 0 9 5 9 10 0 6 -11 10 -25 10 -16 0 -25 -6 -25 -16z"/>
 <path d="M3067 1370 c-4 -17 0 -20 24 -20 27 0 29 2 19 20 -6 11 -17 20 -24 20 -8 0 -16 -9 -19 -20z"/>
 <path d="M1440 1374 c0 -9 44 -54 53 -54 17 0 5 29 -18 44 -26 17 -35 20 -35 10z"/>
 <path d="M3175 1145 c-27 -7 -75 -23 -105 -35 -94 -38 -112 -41 -220 -39 -209 3 -239 -2 -380 -61 -62 -26 -93 -32 -175 -36 -168 -9 -245 -36 -346 -120 -49 -40 -119 -129 -119 -149 0 -15 126 -47 263 -66 70 -11 104 -10 178 0 207 29 455 110 639 208 168 89 384 244 410 293 10 19 8 20 -42 19 -29 0 -75 -6 -103 -14z"/>
 <path d="M1385 961 c-3 -5 0 -13 6 -16 7 -5 1 -14 -16 -25 -25 -16 -26 -19 -9 -28 13 -7 26 -6 46 4 33 17 37 49 9 64 -24 12 -28 12 -36 1z"/>
 <path d="M1654 942 c-15 -10 -25 -40 -15 -47 12 -7 33 21 29 39 -2 9 -8 12 -14 8z"/>
 </g>

</svg>